<svg xmlns="http://www.w3.org/2000/svg" xmlns:xlink="http://www.w3.org/1999/xlink" width="350" height="350" viewBox="0 0 350 350">
  <defs>
    <clipPath id="clip-path">
      <rect id="Rectángulo_9491" data-name="Rectángulo 9491" width="350" height="350" transform="translate(20 197)" fill="#fff" stroke="#707070" stroke-width="1"/>
    </clipPath>
  </defs>
  <g id="Enmascarar_grupo_13" data-name="Enmascarar grupo 13" transform="translate(-20 -197)" clip-path="url(#clip-path)">
    <g id="Grupo_45420" data-name="Grupo 45420" transform="translate(6.002 158.369)">
      <g id="Grupo_45375" data-name="Grupo 45375" transform="translate(13.998 141.844)">
        <path id="Trazado_22143" data-name="Trazado 22143" d="M120.912,160.529s-4.316-2.936-10.627-.674-7.73,10.762-6.175,17.66-7.136,30.45-7.136,30.45,4.517,6.352,20.3,3.921c0,0,11.77-21.39,10.9-36.746S120.912,160.529,120.912,160.529Z" transform="translate(-35.446 -158.999)" fill="#c24749"/>
        <path id="Trazado_22144" data-name="Trazado 22144" d="M135.976,196.706c5.932-1.9,9.563,3.042,12.962,12.236s4.542,10.115,4.542,10.115l13.12,8.43-1.09,4.913s-12.486-4.889-15.505-8-11.7-18.861-11.7-18.861Z" transform="translate(-45.527 -168.641)" fill="#ef6e4b"/>
        <path id="Trazado_22145" data-name="Trazado 22145" d="M94.463,276.941s-2.574,13.035-2.15,32.657c0,0-10.143,14.956-1.772,57.629h4.391s3.587-36.307,6.331-46.145,12.878-12.857,13.427-42.769Z" transform="translate(-32.927 -189.484)" fill="#ff8b66"/>
        <path id="Trazado_22146" data-name="Trazado 22146" d="M59.562,314.082c-2.551-8.408-9.108-22.49-25.93-41.578a2.5,2.5,0,0,0-2.36.311c-1.432.875-1.432,1.9-1.432,1.9s8.436,18.383,13.815,31.851a11.925,11.925,0,0,0,11.074,7.513Z" transform="translate(-18.093 -188.296)" fill="#ff8b66"/>
        <path id="Trazado_22147" data-name="Trazado 22147" d="M93.19,323.792s.057,6.274-4.059,6.381C83.319,330.33,83.1,324,76.518,324.2s-20.17,1.852-24.492-8.439c-2.231-5.318.823-12.143-6.381-17.288s-3.7-10.909,0-14-1.6-6.455,2.265-8.027a3.776,3.776,0,0,1,2.667-.05,6.19,6.19,0,0,1,1.4.708,13.528,13.528,0,0,1,3.475,3.721c10.908-29.877,30.329-33.82,30.329-33.82l19.208,6.627C105.448,300.123,93.19,323.792,93.19,323.792Z" transform="translate(-21.095 -181.749)" fill="#efb159"/>
        <path id="Trazado_22148" data-name="Trazado 22148" d="M126.251,195.9a25.153,25.153,0,0,1-10.855.544c-6.373-.968-8.446-4.969-12.926-2.394-6.726,3.867-3.579,17.177-1.89,24.1a34.586,34.586,0,0,1-.091,14.953s8.956,6.969,19.207,6.622l5.593-12.163S137.45,213.013,126.251,195.9Z" transform="translate(-35.802 -167.84)" fill="#cfd8dc"/>
        <path id="Trazado_22149" data-name="Trazado 22149" d="M120.076,181.447a27.493,27.493,0,0,1-1.584,12.024s3.325,4.91,6.5,1.679a31.726,31.726,0,0,1,3.855-12.3C131.234,178.479,120.076,181.447,120.076,181.447Z" transform="translate(-41.008 -164.547)" fill="#ef6e4b"/>
        <g id="Grupo_45370" data-name="Grupo 45370" transform="translate(71.458 2.444)">
          <path id="Trazado_22150" data-name="Trazado 22150" d="M112.879,181.882s-2.805-1.775-2.489.963c.367,3.172,3.461,3.791,3.791,2.681S112.879,181.882,112.879,181.882Z" transform="translate(-110.365 -167.211)" fill="#ff8b66"/>
          <path id="Trazado_22151" data-name="Trazado 22151" d="M135.422,176.994s1.781-2.8,2.662-.19c1.021,3.025-1.514,4.9-2.285,4.042S135.422,176.994,135.422,176.994Z" transform="translate(-116.816 -165.757)" fill="#ff8b66"/>
          <path id="Trazado_22152" data-name="Trazado 22152" d="M123.723,187.2c-5.088,1.139-8.7-1.542-10.935-11.508-1.152-5.142.759-8.881,6.457-10.157s8.8,1.34,9.956,6.482C131.6,182.729,128.978,186.025,123.723,187.2Z" transform="translate(-110.909 -163.05)" fill="#ff8b66"/>
          <path id="Trazado_22153" data-name="Trazado 22153" d="M133.038,179.5a1.235,1.235,0,1,1-1.482-.429A1.106,1.106,0,0,1,133.038,179.5Z" transform="translate(-115.635 -166.603)" fill="#db614d"/>
          <path id="Trazado_22154" data-name="Trazado 22154" d="M118.973,182.955a1.235,1.235,0,1,1-1.339-.765A1.1,1.1,0,0,1,118.973,182.955Z" transform="translate(-111.973 -167.432)" fill="#db614d"/>
          <g id="Grupo_45367" data-name="Grupo 45367" transform="translate(11.274 7.337)">
            <path id="Trazado_22155" data-name="Trazado 22155" d="M128.156,173.109a.258.258,0,0,1-.144-.044,2.991,2.991,0,0,0-2.116-.269.261.261,0,0,1-.13-.5,3.488,3.488,0,0,1,2.535.34.261.261,0,0,1-.145.478Z" transform="translate(-125.57 -172.189)" fill="#c24749"/>
          </g>
          <g id="Grupo_45368" data-name="Grupo 45368" transform="translate(4.02 8.614)">
            <path id="Trazado_22156" data-name="Trazado 22156" d="M116.047,175.7a.263.263,0,0,1-.134-.038.26.26,0,0,1-.088-.357,3.482,3.482,0,0,1,2.148-1.389.265.265,0,0,1,.3.207.261.261,0,0,1-.207.3,3.013,3.013,0,0,0-1.8,1.146A.259.259,0,0,1,116.047,175.7Z" transform="translate(-115.787 -173.911)" fill="#c24749"/>
          </g>
          <path id="Trazado_22157" data-name="Trazado 22157" d="M128.9,176.842c.141.632-.029,1.208-.38,1.286s-.75-.369-.892-1,.028-1.208.38-1.287S128.756,176.209,128.9,176.842Z" transform="translate(-114.814 -165.794)" fill="#1a4850"/>
          <path id="Trazado_22158" data-name="Trazado 22158" d="M119.364,178.893c.142.632-.029,1.208-.38,1.287s-.75-.37-.892-1,.029-1.208.38-1.287S119.223,178.261,119.364,178.893Z" transform="translate(-112.35 -166.324)" fill="#1a4850"/>
          <path id="Trazado_22159" data-name="Trazado 22159" d="M122.907,186.8s3.268-.266,4.708-1.482c0,0-.4,2.553-2.174,2.73A2.6,2.6,0,0,1,122.907,186.8Z" transform="translate(-113.607 -168.245)" fill="#1a4850"/>
          <path id="Trazado_22160" data-name="Trazado 22160" d="M126.951,176.589s.115-1.66.751-1.685,1.4,1.2,1.4,1.2l.8-.681-.876.32s-.782-1.285-1.387-1.152C126.772,174.783,126.951,176.589,126.951,176.589Z" transform="translate(-114.648 -165.472)" fill="#1a4850"/>
          <path id="Trazado_22161" data-name="Trazado 22161" d="M119.25,178.5s-.812-1.453-1.4-1.2-.751,1.685-.751,1.685l-1.011-.277.93-.085s.159-1.5.763-1.634C118.642,176.793,119.25,178.5,119.25,178.5Z" transform="translate(-111.845 -166.089)" fill="#1a4850"/>
          <g id="Grupo_45369" data-name="Grupo 45369" transform="translate(9.833 13.255)">
            <path id="Trazado_22162" data-name="Trazado 22162" d="M124.741,182.521l-.262-.5a.649.649,0,0,0,.415-.737.7.7,0,0,0-.485-.554c-.1-.005-.189.082-.257.263l-.526-.2a.809.809,0,0,1,.827-.627,1.234,1.234,0,0,1,.992,1A1.213,1.213,0,0,1,124.741,182.521Z" transform="translate(-123.626 -180.171)" fill="#db614d"/>
          </g>
          <path id="Trazado_22163" data-name="Trazado 22163" d="M113.338,178.76s-1.569-5.773-.638-9.856c0,0,4.426-6.163,12.969-3.117a34.463,34.463,0,0,1,3.789,9.79,22.35,22.35,0,0,0-.531-6.619c-.851-4.568-4.9-7.406-10.46-6.492S106.964,168.908,113.338,178.76Z" transform="translate(-110.422 -162.295)" fill="#c24749"/>
        </g>
        <path id="Trazado_22164" data-name="Trazado 22164" d="M122.029,163.952s.339,1.508-1.127,5.388a1.6,1.6,0,0,0-2.289,0c-1.235,1.1-3.742.733-4.6,1.33a2.64,2.64,0,0,0-.856,1.957,5.4,5.4,0,0,1,0-3.728,7.469,7.469,0,0,0-1.445,4.733s-2.259-.365-2.157-4.092,5.4-9.758,11.345-9.368,7.359,9.8,7.359,9.8a1.733,1.733,0,0,0-1.39-.237,12.329,12.329,0,0,0-1.467-4.5,6.671,6.671,0,0,1,0,3.768,5.384,5.384,0,0,0-2.961-.6S123.248,166.827,122.029,163.952Z" transform="translate(-38.697 -159.297)" fill="#c24749"/>
        <path id="Trazado_22165" data-name="Trazado 22165" d="M100.055,195.675c2.893-2.28,5.145.621,5.7,4.632s-4.679,27.682-8.713,26.809c-1.557-.337-2.193-6.536-2.193-6.536a142.371,142.371,0,0,0,2.6-16.672C97.915,199.3,98.546,196.865,100.055,195.675Z" transform="translate(-34.896 -168.271)" fill="#ff8b66"/>
        <path id="Trazado_22166" data-name="Trazado 22166" d="M86.109,225.658c-3.894-3.712-10.877-16.025-12.651-22.3l2.956-1.189s8.9,12.732,12.957,15.942,5.484,6.786,3.671,9.848S86.929,226.439,86.109,225.658Z" transform="translate(-29.367 -170.158)" fill="#ff8b66"/>
        <g id="Grupo_45371" data-name="Grupo 45371" transform="translate(35.079 23.614)">
          <path id="Trazado_22167" data-name="Trazado 22167" d="M71.531,192.219c-.2,4.026,3.078,4.981,1.622,8.071a2.109,2.109,0,0,1-1.233,1.146,2.5,2.5,0,0,1-2.576-.662,28.457,28.457,0,0,0-5.255-3.98c-1.459-.842-.633-1.071-.633-1.071-.142-.067-.279-.122-.417-.178-1.041-.436-1.874-.6-1.118-1.064.849-.528,3.862.572,3.862.572-3.921-2.611-4.985-1.975-4.269-2.529.977-.759,4.7.987,4.815,1.04-2.071-1.958-3.573-2.4-2.751-2.7s4.931,2.669,6.427,3.783c.337.25.544.41.544.41C70.5,191.768,71.531,192.219,71.531,192.219Z" transform="translate(-61.305 -190.845)" fill="#ff8b66"/>
          <path id="Trazado_22168" data-name="Trazado 22168" d="M72.941,195.975c.337.25.544.41.544.41a2.729,2.729,0,0,0,.207,2.71A2.437,2.437,0,0,1,72.941,195.975Z" transform="translate(-64.242 -192.171)" fill="#ef6e4b"/>
          <path id="Trazado_22169" data-name="Trazado 22169" d="M67.171,198.544c-.347-.191-2.325-1.3-3.111-1.238-.142-.067-.279-.122-.417-.178C64.172,196.431,66.778,198.259,67.171,198.544Z" transform="translate(-61.91 -192.428)" fill="#ef6e4b"/>
        </g>
        <g id="Grupo_45372" data-name="Grupo 45372" transform="translate(27.052 70.504)">
          <path id="Trazado_22170" data-name="Trazado 22170" d="M88.813,279.392a.792.792,0,1,1-.791-.791A.791.791,0,0,1,88.813,279.392Z" transform="translate(-59.979 -260.417)" fill="#f9d597"/>
          <path id="Trazado_22171" data-name="Trazado 22171" d="M107.853,286.737a.792.792,0,1,1-.791-.791A.792.792,0,0,1,107.853,286.737Z" transform="translate(-64.901 -262.316)" fill="#f9d597"/>
          <path id="Trazado_22172" data-name="Trazado 22172" d="M124.077,290.676a.791.791,0,1,1-.791-.791A.792.792,0,0,1,124.077,290.676Z" transform="translate(-69.095 -263.334)" fill="#f9d597"/>
          <path id="Trazado_22173" data-name="Trazado 22173" d="M99.149,265.456a.792.792,0,1,1-.791-.791A.792.792,0,0,1,99.149,265.456Z" transform="translate(-62.651 -256.815)" fill="#f9d597"/>
          <circle id="Elipse_173" data-name="Elipse 173" cx="0.791" cy="0.791" r="0.791" transform="translate(37.58 15.37)" fill="#f9d597"/>
          <path id="Trazado_22174" data-name="Trazado 22174" d="M119.626,281.378a.792.792,0,1,1-.791-.791A.792.792,0,0,1,119.626,281.378Z" transform="translate(-67.944 -260.931)" fill="#f9d597"/>
          <path id="Trazado_22175" data-name="Trazado 22175" d="M121.943,263.884a.792.792,0,1,1-.792-.791A.792.792,0,0,1,121.943,263.884Z" transform="translate(-68.543 -256.409)" fill="#f9d597"/>
          <circle id="Elipse_174" data-name="Elipse 174" cx="0.791" cy="0.791" r="0.791" transform="translate(43.614 3.984)" fill="#f9d597"/>
          <path id="Trazado_22176" data-name="Trazado 22176" d="M79.369,300.211a.792.792,0,1,1-.791-.791A.792.792,0,0,1,79.369,300.211Z" transform="translate(-57.538 -265.799)" fill="#f9d597"/>
          <path id="Trazado_22177" data-name="Trazado 22177" d="M64.159,295.673a.792.792,0,1,1-.792-.791A.792.792,0,0,1,64.159,295.673Z" transform="translate(-53.607 -264.626)" fill="#f9d597"/>
          <path id="Trazado_22178" data-name="Trazado 22178" d="M55.136,287.358a.8.8,0,0,1-1.457-.437.591.591,0,0,1,.058-.271A6.192,6.192,0,0,1,55.136,287.358Z" transform="translate(-51.307 -262.498)" fill="#f9d597"/>
          <circle id="Elipse_175" data-name="Elipse 175" cx="0.791" cy="0.791" r="0.791" transform="translate(24.289 43.942)" fill="#f9d597"/>
          <path id="Trazado_22179" data-name="Trazado 22179" d="M57.52,329.258a.792.792,0,1,1-.791-.792A.791.791,0,0,1,57.52,329.258Z" transform="translate(-51.891 -273.307)" fill="#f9d597"/>
          <circle id="Elipse_176" data-name="Elipse 176" cx="0.791" cy="0.791" r="0.791" transform="translate(12.316 48.36)" fill="#f9d597"/>
          <circle id="Elipse_177" data-name="Elipse 177" cx="0.791" cy="0.791" r="0.791" transform="translate(0 42.344)" fill="#f9d597"/>
          <path id="Trazado_22180" data-name="Trazado 22180" d="M65.47,343.922a.792.792,0,1,1-.791-.791A.792.792,0,0,1,65.47,343.922Z" transform="translate(-53.946 -277.097)" fill="#f9d597"/>
          <path id="Trazado_22181" data-name="Trazado 22181" d="M75.632,287.8a.792.792,0,1,1-.792-.792A.792.792,0,0,1,75.632,287.8Z" transform="translate(-56.572 -262.592)" fill="#f9d597"/>
          <path id="Trazado_22182" data-name="Trazado 22182" d="M85.886,269.83a.792.792,0,1,1-.791-.791A.792.792,0,0,1,85.886,269.83Z" transform="translate(-59.223 -257.946)" fill="#f9d597"/>
          <path id="Trazado_22183" data-name="Trazado 22183" d="M97.491,254.871a.792.792,0,1,1-.792-.792A.792.792,0,0,1,97.491,254.871Z" transform="translate(-62.222 -254.079)" fill="#f9d597"/>
          <path id="Trazado_22184" data-name="Trazado 22184" d="M73.973,276.665a.791.791,0,1,1-.791-.791A.791.791,0,0,1,73.973,276.665Z" transform="translate(-56.144 -259.713)" fill="#f9d597"/>
          <path id="Trazado_22185" data-name="Trazado 22185" d="M86.954,259.176a.792.792,0,1,1-.792-.791A.792.792,0,0,1,86.954,259.176Z" transform="translate(-59.499 -255.192)" fill="#f9d597"/>
          <path id="Trazado_22186" data-name="Trazado 22186" d="M66.538,307.234a.792.792,0,1,1-.792-.791A.792.792,0,0,1,66.538,307.234Z" transform="translate(-54.222 -267.614)" fill="#f9d597"/>
          <path id="Trazado_22187" data-name="Trazado 22187" d="M53.13,297.808a.791.791,0,1,1-.791-.791A.791.791,0,0,1,53.13,297.808Z" transform="translate(-50.756 -265.178)" fill="#f9d597"/>
          <circle id="Elipse_178" data-name="Elipse 178" cx="0.791" cy="0.791" r="0.791" transform="translate(29.626 29.465)" fill="#f9d597"/>
          <circle id="Elipse_179" data-name="Elipse 179" cx="0.791" cy="0.791" r="0.791" transform="translate(45.989 33.621)" fill="#f9d597"/>
          <path id="Trazado_22188" data-name="Trazado 22188" d="M113.015,269.83a.792.792,0,1,1-.791-.791A.792.792,0,0,1,113.015,269.83Z" transform="translate(-66.235 -257.946)" fill="#f9d597"/>
          <path id="Trazado_22189" data-name="Trazado 22189" d="M125.844,272.068a.792.792,0,1,1-.791-.791A.791.791,0,0,1,125.844,272.068Z" transform="translate(-69.551 -258.524)" fill="#f9d597"/>
          <path id="Trazado_22190" data-name="Trazado 22190" d="M100.216,308.3a.791.791,0,1,1-.791-.792A.791.791,0,0,1,100.216,308.3Z" transform="translate(-62.927 -267.89)" fill="#f9d597"/>
          <circle id="Elipse_180" data-name="Elipse 180" cx="0.791" cy="0.791" r="0.791" transform="translate(28.834 53.699)" fill="#f9d597"/>
          <circle id="Elipse_181" data-name="Elipse 181" cx="0.791" cy="0.791" r="0.791" transform="translate(16.685 55.951)" fill="#f9d597"/>
          <circle id="Elipse_182" data-name="Elipse 182" cx="0.791" cy="0.791" r="0.791" transform="translate(50.099 43.942)" fill="#f9d597"/>
          <path id="Trazado_22191" data-name="Trazado 22191" d="M104.878,322.223a.792.792,0,1,1-.791-.792A.791.791,0,0,1,104.878,322.223Z" transform="translate(-64.132 -271.488)" fill="#f9d597"/>
          <path id="Trazado_22192" data-name="Trazado 22192" d="M82.684,346.057a.792.792,0,1,1-.791-.791A.791.791,0,0,1,82.684,346.057Z" transform="translate(-58.395 -277.649)" fill="#f9d597"/>
          <circle id="Elipse_183" data-name="Elipse 183" cx="0.791" cy="0.791" r="0.791" transform="translate(34.915 63.495)" fill="#f9d597"/>
          <circle id="Elipse_184" data-name="Elipse 184" cx="0.791" cy="0.791" r="0.791" transform="translate(46.677 58.833)" fill="#f9d597"/>
          <path id="Trazado_22193" data-name="Trazado 22193" d="M107.853,352.573a.792.792,0,1,1-.791-.791A.791.791,0,0,1,107.853,352.573Z" transform="translate(-64.901 -279.333)" fill="#f9d597"/>
        </g>
        <g id="Grupo_45373" data-name="Grupo 45373" transform="translate(55.885 173.062)">
          <path id="Trazado_22194" data-name="Trazado 22194" d="M102.618,404.748h-13c-.848-2.42.716-4.85.453-6.981-.453-3.606,1.646-1.613,1.646-1.613.371-3.878,5.821-4.611,5.763-2.882a8.326,8.326,0,0,0,1.128,5.17c1.465,2.116,3.869,2.1,4.281,3.614.042.148.074.3.1.428C103.391,404.377,102.618,404.748,102.618,404.748Z" transform="translate(-89.363 -392.388)" fill="#205260"/>
          <path id="Trazado_22195" data-name="Trazado 22195" d="M104.545,404.593c-2.692.626-8.9-.189-9.146-1.753-.239-1.515,3.1-2.223,4.766-2.289,1.465,2.116,3.869,2.1,4.281,3.614C104.488,404.313,104.52,404.462,104.545,404.593Z" transform="translate(-90.92 -394.498)" fill="#497d8c"/>
        </g>
        <g id="Grupo_45374" data-name="Grupo 45374" transform="translate(0 77.981)">
          <path id="Trazado_22196" data-name="Trazado 22196" d="M29.7,270.908c-1.383-1.259-3.63.824-3.63.824s1.21,1.794.428,2.519-1.688-.931-3.227-.206a3.023,3.023,0,0,0-.379.214,17.816,17.816,0,0,0-3.466,3.367c-.205.231-.4.445-.584.634-1.178,1.235-4.216,1.959-4.784-1.334s3.137-7.154,7.2-10.7,6.694-1.441,6.694-1.441a6.4,6.4,0,0,1,.922,2.42c0,.922.823,1.383,1.284,2.264A1.117,1.117,0,0,1,29.7,270.908Z" transform="translate(-13.998 -264.162)" fill="#205260"/>
          <path id="Trazado_22197" data-name="Trazado 22197" d="M23.689,276.407a17.816,17.816,0,0,0-3.466,3.367c-1.523.363-2.89.255-3.1-1.178-.519-3.458,6.38-7.853,5.828-5.425A4.321,4.321,0,0,0,23.689,276.407Z" transform="translate(-14.798 -266.31)" fill="#497d8c"/>
        </g>
      </g>
      <g id="Grupo_45388" data-name="Grupo 45388" transform="translate(217.432 92.631)">
        <path id="Trazado_22198" data-name="Trazado 22198" d="M346.238,396.576a5.033,5.033,0,0,1-1.763-2.012,20.154,20.154,0,0,1,0-5.676c.457-2.908-.809-5.283-4.925-6.175-4-.868-6.376,1.061-5.452,9.106v0c-.609,3.343-.735,7.159.653,10.375H347.07S349.013,398.033,346.238,396.576Z" transform="translate(-300.059 -167.562)" fill="#cfd8dc"/>
        <path id="Trazado_22199" data-name="Trazado 22199" d="M357.857,342.756a37.371,37.371,0,0,1-4.528,16.259c-4.611,8.384-10.311,19.889-10.311,19.889s-3.8,3.705-6.212-2.431c0,0,1.7-21.368,5.614-29.189S357.857,342.756,357.857,342.756Z" transform="translate(-300.872 -157.106)" fill="#ff8b66"/>
        <path id="Trazado_22200" data-name="Trazado 22200" d="M440.96,307.745s7.337,30.855,12,38.994c0,0-1.074,3.405-6.127,4.434,0,0-15.962-23.463-16.991-33.342S440.96,307.745,440.96,307.745Z" transform="translate(-324.905 -148.234)" fill="#ff8b66"/>
        <g id="Grupo_45377" data-name="Grupo 45377" transform="translate(37.942 108.641)">
          <path id="Trazado_22201" data-name="Trazado 22201" d="M421.175,297.265c-1.952,4.7-17.025,4.956-17.025,4.956l-1.153-1.7-.3-.445-2.354-3.474s-24.978-24.5-29.844-22.443h-.008a2.369,2.369,0,0,0-.412.239c-3.342,2.388-3.655,15.47-7.607,37.427a38.6,38.6,0,0,1-1.852,6.191c-.074.181-.139.354-.205.518-.363.931-.618,1.523-.618,1.523-15.247,6.175-20.278-6.026-20.278-6.026s.182-.354.445-.922c.058-.124.124-.264.189-.412.8-1.762,2.075-4.816,2.058-6.43q-.024-2.655-.041-5.112c0-.148,0-.288-.009-.429-.024-5.277-.016-9.862.017-13.847v-.42c.016-1.737.041-3.359.074-4.874v-.428c.131-6.941.354-11.576.592-14.663.008-.14.025-.288.033-.42.42-5.2.865-5.705.865-5.705l-3.054-21.233h33.326s5.005,5.014,11.5,11.633c.14.132.272.263.4.4,2.355,2.4,4.9,5,7.451,7.64.108.108.206.206.3.3l3,3.1c.124.123.239.255.363.378,3.343,3.467,6.586,6.883,9.361,9.871.1.1.189.2.28.3a99.046,99.046,0,0,1,7.681,8.924,61.718,61.718,0,0,1,5.836,12.555v.008c.058.148.107.28.156.42C420.879,296.261,421.175,297.265,421.175,297.265Z" transform="translate(-339.514 -239.142)" fill="#8b383e"/>
          <g id="Grupo_45376" data-name="Grupo 45376" transform="translate(0.445 7.509)">
            <path id="Trazado_22202" data-name="Trazado 22202" d="M349.886,269.725A9.017,9.017,0,0,1,344,272.673c.008-.14.025-.288.033-.42a8.543,8.543,0,0,0,5.541-2.8,9.3,9.3,0,0,0,1.91-6.381l.412-.049A9.616,9.616,0,0,1,349.886,269.725Z" transform="translate(-341.118 -252.824)" fill="#662c33"/>
            <path id="Trazado_22203" data-name="Trazado 22203" d="M399.244,253.8c-.131.008-.255.016-.386.016-3.7,0-7.575-4.05-7.772-4.256l.3-.288c.049.057,3.9,4.092,7.458,4.124C398.981,253.524,399.113,253.656,399.244,253.8Z" transform="translate(-353.289 -249.268)" fill="#662c33"/>
            <path id="Trazado_22204" data-name="Trazado 22204" d="M360.77,343.662c-.074.181-.139.354-.205.518a19.634,19.634,0,0,1-6.8,1.276c-6.586,0-11.147-3.811-13.65-6.7.058-.124.124-.264.189-.412C343.506,342.1,350.348,347.638,360.77,343.662Z" transform="translate(-340.114 -272.292)" fill="#662c33"/>
            <path id="Trazado_22205" data-name="Trazado 22205" d="M377.674,270.97a34.615,34.615,0,0,1,.922,7.648,2.368,2.368,0,0,0-.412.239c-.016-12.431-7.212-22.129-7.294-22.237l.329-.247a42.818,42.818,0,0,1,6.347,14.169,3.773,3.773,0,0,0,1.647-2.363c1.037-4.363-3.68-11.493-3.721-11.567l.337-.231c.2.3,4.857,7.352,3.787,11.889A4.183,4.183,0,0,1,377.674,270.97Z" transform="translate(-348.069 -251.104)" fill="#662c33"/>
            <path id="Trazado_22206" data-name="Trazado 22206" d="M424.838,279.632c-1.226,1.334-2.38,2.47-2.486,2.569l-.222.222-.107-.3c-1.614-4.224-11.987-13.378-12.094-13.469l-.123-.115,1.728-2.865c.108.108.206.206.3.3l-1.449,2.4a10.1,10.1,0,0,0,4.454.7c.124.123.239.255.363.378a6.4,6.4,0,0,1-1.079.091,11.182,11.182,0,0,1-3.186-.552c2.354,2.124,9.673,8.908,11.353,12.687.65-.642,1.474-1.49,2.273-2.355C424.657,279.434,424.747,279.533,424.838,279.632Z" transform="translate(-358.128 -253.509)" fill="#662c33"/>
            <path id="Trazado_22207" data-name="Trazado 22207" d="M350.669,315.733l-.165.033a21.031,21.031,0,0,1-4.174.429,12.251,12.251,0,0,1-3.243-.387c0-.148,0-.288-.009-.429a17.857,17.857,0,0,0,7.171.025l-.692-17.133a5.561,5.561,0,0,1-2.585,2.931,5,5,0,0,1-2.289.51,7.377,7.377,0,0,1-1.588-.181v-.42a5.35,5.35,0,0,0,3.688-.28,5.616,5.616,0,0,0,2.651-3.45c-1.376.206-4.15-.494-6.265-1.144v-.428c2.28.691,5.367,1.49,6.479,1.1l.264-.09Z" transform="translate(-340.88 -261.298)" fill="#662c33"/>
            <path id="Trazado_22208" data-name="Trazado 22208" d="M442.366,313.894a20.887,20.887,0,0,1-14.852,5.977,23.941,23.941,0,0,1-2.494-.131l-.3-.445a20.732,20.732,0,0,0,17.495-5.82C442.268,313.622,442.317,313.754,442.366,313.894Z" transform="translate(-361.982 -265.864)" fill="#662c33"/>
          </g>
        </g>
        <path id="Trazado_22209" data-name="Trazado 22209" d="M381.874,116.67s-.917-2.108-4.785-2.11c-2.982,0-4.123,1.647-4.123,1.647-1.784,5.214-3.7,25.178-4.388,25.889-.348.36-22.464,15.256-22.464,15.256,12,.225,19.491,15.019,19.491,15.019.388-4.861,13.943-24.127,14.088-25.844C379.967,143.286,385.7,128.813,381.874,116.67Z" transform="translate(-303.278 -98.299)" fill="#ce364c"/>
        <path id="Trazado_22210" data-name="Trazado 22210" d="M342.558,254.21s-.111,4.165,1.236,4.439a37.9,37.9,0,0,0,24.948-2.219c12.624-5.739,14.819-9.993,11.115-13.148S342.558,254.21,342.558,254.21Z" transform="translate(-302.358 -131.452)" fill="#ce364c"/>
        <path id="Trazado_22211" data-name="Trazado 22211" d="M329.385,175.058s-11.485-1.361-18.072,1.49c0,0-1.837,8.151,7.211,26.391s6.949,29.729,17.154,34.054c9.047,3.834,35.719-7.575,36.557-11.359,2.109-9.526-14.2-26.244-15.231-35.93S346.508,165.452,329.385,175.058Z" transform="translate(-294.243 -113.124)" fill="#f24052"/>
        <path id="Trazado_22212" data-name="Trazado 22212" d="M305.417,178.158c-8.027,2.85-17.057,11.863-17.071,16.207s7.532,6.019,7.532,6.019l12.369-6.019s3.539-2.47,1.286-9.67S305.417,178.158,305.417,178.158Z" transform="translate(-288.346 -114.734)" fill="#ce364c"/>
        <g id="Grupo_45378" data-name="Grupo 45378" transform="translate(41.023 62.546)">
          <path id="Trazado_22213" data-name="Trazado 22213" d="M352.7,185.89a13.622,13.622,0,0,1-7.221-2.181,3.858,3.858,0,0,1-1.757-2.368c-.454-2.851,2.322-4.3,2.441-4.361l.374.733c-.1.05-2.361,1.244-2,3.5a3.088,3.088,0,0,0,1.421,1.826,12.208,12.208,0,0,0,7.979,1.93,2.71,2.71,0,0,0,2.042-1.122,1.87,1.87,0,0,0,.051-1.467l.756-.326a2.679,2.679,0,0,1-.079,2.176,3.449,3.449,0,0,1-2.627,1.549A7.952,7.952,0,0,1,352.7,185.89Z" transform="translate(-343.669 -176.98)" fill="#cfd8dc"/>
        </g>
        <g id="Grupo_45379" data-name="Grupo 45379" transform="translate(30.416 64.766)">
          <path id="Trazado_22214" data-name="Trazado 22214" d="M338.821,195.351c-1.776,0-4.725-.741-5.139-3.656a14.5,14.5,0,0,1,.044-3.813c.177-1.608.315-2.878-.621-4.4a5.179,5.179,0,0,0-3.742-2.687l.05-.822a5.978,5.978,0,0,1,4.393,3.077,6.939,6.939,0,0,1,.739,4.921,13.559,13.559,0,0,0-.047,3.607c.446,3.146,4.457,2.949,4.626,2.94l.049.822C339.062,195.347,338.944,195.351,338.821,195.351Z" transform="translate(-329.364 -179.974)" fill="#cfd8dc"/>
        </g>
        <path id="Trazado_22215" data-name="Trazado 22215" d="M337.683,176.7s6.072-4.135,4.631-8.612-20.994-4.168-26.036,1.183,10.908,8.9,10.908,8.9C328.421,175.684,336.31,175.409,337.683,176.7Z" transform="translate(-295.311 -111.329)" fill="#ce364c"/>
        <path id="Trazado_22216" data-name="Trazado 22216" d="M329.338,177.274c-2.881-.978-4.589-3.057-3.971-5.458s13-2.466,15.352-.547S339.759,180.812,329.338,177.274Z" transform="translate(-297.883 -112.607)" fill="#a02e44"/>
        <path id="Trazado_22217" data-name="Trazado 22217" d="M328.917,170.334s2.549,4.354,1.371,6.749c0,0,8.745,3.019,8.745-1.874,0,0-1.648-3.667-1.027-6.037Z" transform="translate(-298.833 -112.415)" fill="#ef6e4b"/>
        <g id="Grupo_45383" data-name="Grupo 45383" transform="translate(22.544 31.293)">
          <path id="Trazado_22218" data-name="Trazado 22218" d="M323.617,157.654s-4.3-6.881-3.9-13.453c.2-3.286,1.889-4.574,1.889-4.574s-1.364-1.9.1-4.8c0,0,2.024,2.342,9.126,1.6,6.849-.713,7.532,4.17,7.532,4.17,4.895.727,1.593,15.536-1.823,17.049Z" transform="translate(-318.993 -134.832)" fill="#ffb878"/>
          <path id="Trazado_22219" data-name="Trazado 22219" d="M321.55,156.7s-2.469-2.464-2.773.417c-.352,3.338,2.678,4.681,3.272,3.62S321.55,156.7,321.55,156.7Z" transform="translate(-318.749 -140.231)" fill="#ff8b66"/>
          <path id="Trazado_22220" data-name="Trazado 22220" d="M345.611,156.934s2.469-2.464,2.773.417c.352,3.338-2.679,4.682-3.272,3.62S345.611,156.934,345.611,156.934Z" transform="translate(-325.518 -140.291)" fill="#ff8b66"/>
          <path id="Trazado_22221" data-name="Trazado 22221" d="M330.847,165.242c-5.479,0-8.571-3.579-8.571-14.314,0-5.536,2.817-8.932,8.954-8.932s8.722,3.4,8.722,8.932C339.952,162.463,336.508,165.242,330.847,165.242Z" transform="translate(-319.66 -136.684)" fill="#ff8b66"/>
          <path id="Trazado_22222" data-name="Trazado 22222" d="M342.793,158.925a1.3,1.3,0,1,1-1.422-.779A1.161,1.161,0,0,1,342.793,158.925Z" transform="translate(-324.316 -140.852)" fill="#db614d"/>
          <path id="Trazado_22223" data-name="Trazado 22223" d="M327.587,159.228a1.3,1.3,0,1,1-1.2-1.092A1.16,1.16,0,0,1,327.587,159.228Z" transform="translate(-320.38 -140.855)" fill="#db614d"/>
          <g id="Grupo_45380" data-name="Grupo 45380" transform="translate(13.331 11.243)">
            <path id="Trazado_22224" data-name="Trazado 22224" d="M339.46,151.069a.271.271,0,0,1-.208-.053,3.135,3.135,0,0,0-2.2-.43.278.278,0,0,1-.319-.219.273.273,0,0,1,.219-.32,3.657,3.657,0,0,1,2.635.535.274.274,0,0,1-.125.487Z" transform="translate(-336.726 -149.994)" fill="#ffb878"/>
          </g>
          <g id="Grupo_45381" data-name="Grupo 45381" transform="translate(5.338 11.223)">
            <path id="Trazado_22225" data-name="Trazado 22225" d="M326.187,151.1a.268.268,0,0,1-.178-.1.275.275,0,0,1,.038-.386,3.658,3.658,0,0,1,2.617-.615.274.274,0,0,1,.228.312.28.28,0,0,1-.313.229,3.155,3.155,0,0,0-2.185.5A.277.277,0,0,1,326.187,151.1Z" transform="translate(-325.947 -149.967)" fill="#ffb878"/>
          </g>
          <path id="Trazado_22226" data-name="Trazado 22226" d="M339.172,155.185c0,.68-.306,1.232-.684,1.232s-.684-.552-.684-1.232.306-1.232.684-1.232S339.172,154.5,339.172,155.185Z" transform="translate(-323.674 -139.774)" fill="#1a4850"/>
          <path id="Trazado_22227" data-name="Trazado 22227" d="M329.3,155.185c0,.68-.306,1.232-.684,1.232s-.684-.552-.684-1.232.306-1.232.684-1.232S329.3,154.5,329.3,155.185Z" transform="translate(-321.123 -139.774)" fill="#1a4850"/>
          <path id="Trazado_22228" data-name="Trazado 22228" d="M323.518,142.717a37.338,37.338,0,0,0,14.21,1.536s1.785,2.225,1.568,10.075c0,0,4.9-14.141-9.408-14.141s-7.863,13.827-7.863,13.827S320.856,145.367,323.518,142.717Z" transform="translate(-319.221 -136.216)" fill="#ffb878"/>
          <g id="Grupo_45382" data-name="Grupo 45382" transform="translate(11.124 12.502)">
            <path id="Trazado_22229" data-name="Trazado 22229" d="M334.16,158.26l-.41-.413,1.083-1.077c-1.051-1.486-1.045-4.924-1.044-5.078l.582,0c0,.036-.006,3.736,1.067,4.9l.191.206Z" transform="translate(-333.75 -151.692)" fill="#db614d"/>
          </g>
          <path id="Trazado_22230" data-name="Trazado 22230" d="M329.4,162.794s5.392.228,8.115-.493a3.614,3.614,0,0,1-3.7,4.117C329.4,166.623,329.4,162.794,329.4,162.794Z" transform="translate(-321.502 -141.932)" fill="#1a4850"/>
        </g>
        <path id="Trazado_22231" data-name="Trazado 22231" d="M360.22,182.957c1.029-.191.926,2.5,0,1.721S359.191,183.148,360.22,182.957Z" transform="translate(-306.734 -115.976)" fill="#cfd8dc"/>
        <path id="Trazado_22232" data-name="Trazado 22232" d="M343.085,200.234c-.157,1.034-2.667.055-1.626-.564S343.242,199.2,343.085,200.234Z" transform="translate(-302.01 -120.204)" fill="#cfd8dc"/>
        <path id="Trazado_22233" data-name="Trazado 22233" d="M328.09,208.137s-1.634,4.19-1.541,6.558.868,2.058.868,2.058a2.557,2.557,0,0,0-1.474,1.852c-.234,1.364,3.211,2.367,3.447,2.367s2.669-.926,2.669-.926l.509-7.744-2.152-1.352Z" transform="translate(-298.061 -122.487)" fill="#ef6e4b"/>
        <path id="Trazado_22234" data-name="Trazado 22234" d="M330.143,207.4a33.851,33.851,0,0,1,4.127,2.985c1.152,1.132.495,9.879,0,10.291s-4.287,1.261-5.015.785.283-3.048.283-3.048,1.9-.412,1.631.308a1.887,1.887,0,0,0,0,1.338l.782-.309a9.082,9.082,0,0,1,0-3.4c.383-1.441-2.682-2.961-3.054-5.6S330.143,207.4,330.143,207.4Z" transform="translate(-298.814 -122.298)" fill="#ff8b66"/>
        <path id="Trazado_22235" data-name="Trazado 22235" d="M288.965,199.9c-.953-4.113,3.129-5.568,8.808-4.867,6.586.813,20.112,2.536,23.052,9.671,0,0,.96,2.814-1.525,4.166C312.353,212.652,290.753,207.629,288.965,199.9Z" transform="translate(-288.47 -119.057)" fill="#ce364c"/>
        <path id="Trazado_22236" data-name="Trazado 22236" d="M312.375,196.723s-7.85-3.261-11.76-3.591S306.023,196.219,312.375,196.723Z" transform="translate(-291.277 -118.603)" fill="#a02e44"/>
        <g id="Grupo_45384" data-name="Grupo 45384" transform="translate(66.04)">
          <path id="Trazado_22237" data-name="Trazado 22237" d="M391.3,100.083a17.648,17.648,0,0,0-1.573,3.3c-.412,2.206-.65,3.424-1.424,4.437a4,4,0,0,0-.362,2.8s-3,1.539-5.516-.363a6.409,6.409,0,0,0,0-2.272c-.518-1-2.182-1.539-2.75-3.564a15.883,15.883,0,0,0-2.273-4.3s.486-1.054,1.375-.412,1.465,2.272,1.951,2.437a1.248,1.248,0,0,0,.3.066.063.063,0,0,1,.025.008,1.2,1.2,0,0,0,.98-.255.154.154,0,0,0,.058-.049c.815-.947,1-3.73.971-4.973-.05-1.728.016-4.116,1.07-3.713s.09,1.367.906,5.179l.394.049c.074.272.8-2.313.972-4.742.123-1.671,1.218-1.054,1.457-.526s-.124,2.19-.2,3.4c-.057.8-.123,1.63-.165,2.124l.461.255c1.663-2.9,1.1-4.1,2.067-4.158s.617,2.388.1,3.318a9.164,9.164,0,0,0-.609,2.067c1.7-1.968,1.515-3,2.3-2.873C392.621,97.457,391.9,99.408,391.3,100.083Z" transform="translate(-377.407 -92.631)" fill="#ff8b66"/>
          <path id="Trazado_22238" data-name="Trazado 22238" d="M385.216,107.874c-.576-1.589-2.635-2.314-2.89-2.4a1.2,1.2,0,0,0,.98-.255A2.892,2.892,0,0,1,385.216,107.874Z" transform="translate(-378.678 -95.886)" fill="#ef6e4b"/>
        </g>
        <g id="Grupo_45385" data-name="Grupo 45385" transform="translate(36.269 218.855)">
          <path id="Trazado_22239" data-name="Trazado 22239" d="M337.8,391.48s-1.139-2.325-.123-3.323,2.211.853,3.946.442,2.137-1.645,2.588.035S344.115,395.6,337.8,391.48Z" transform="translate(-337.258 -387.775)" fill="#cfd8dc"/>
          <path id="Trazado_22240" data-name="Trazado 22240" d="M344.334,392.632s-4.66,1.651-7.076,0l.614,2.017s5.065.536,5.763-.74Z" transform="translate(-337.258 -389.031)" fill="#adbec4"/>
          <path id="Trazado_22241" data-name="Trazado 22241" d="M344.51,395.954s-4.266-.592-6.324.468v1s5.562-1.3,7.36,0Z" transform="translate(-337.498 -389.847)" fill="#adbec4"/>
          <path id="Trazado_22242" data-name="Trazado 22242" d="M337.91,400.034a3.889,3.889,0,0,1,3.423-2.161,6.77,6.77,0,0,1,4.347,1.284A8.68,8.68,0,0,0,337.91,400.034Z" transform="translate(-337.427 -390.383)" fill="#adbec4"/>
        </g>
        <g id="Grupo_45387" data-name="Grupo 45387" transform="translate(120.339 196.326)">
          <path id="Trazado_22243" data-name="Trazado 22243" d="M476.86,361.56a34.611,34.611,0,0,1-19.339,13.033,8.175,8.175,0,0,1-3.318-5.648s-3.12-2.782-3.532-4.116,2.676-5.352,4.528-4.939a3.736,3.736,0,0,1,2.354,1.9c-1.531-3.45-.3-4.652,1.869-4.355,2.265.3.124.839,1.746,2.659a2.138,2.138,0,0,0,.387.337,2.673,2.673,0,0,0,1.054.42,4.843,4.843,0,0,0,1.161.057,6.045,6.045,0,0,0,.658-.066,8.828,8.828,0,0,0,1.292-.313,11.585,11.585,0,0,0,2.083-.9c2.832-1.548,4.026-2.075,6.183-1.523s2.116,2.174,2.116,2.174Z" transform="translate(-450.634 -357.393)" fill="#cfd8dc"/>
          <path id="Trazado_22244" data-name="Trazado 22244" d="M479.261,363.006a34.611,34.611,0,0,1-19.339,13.033c5.689-2.446,10.917-5.648,14.489-9.592S479.261,363.006,479.261,363.006Z" transform="translate(-453.035 -358.838)" fill="#adbec4"/>
          <g id="Grupo_45386" data-name="Grupo 45386" transform="translate(8.732 3.04)">
            <path id="Trazado_22245" data-name="Trazado 22245" d="M464.6,361.492a2.672,2.672,0,0,0,1.054.42,2.77,2.77,0,0,0-2.322,2.371l-.922-.3A2.437,2.437,0,0,1,464.6,361.492Z" transform="translate(-462.409 -361.492)" fill="#adbec4"/>
            <path id="Trazado_22246" data-name="Trazado 22246" d="M466.946,364.66l-.963.033a2.548,2.548,0,0,1,.56-2.634,4.842,4.842,0,0,0,1.161.057A2.747,2.747,0,0,0,466.946,364.66Z" transform="translate(-463.3 -361.639)" fill="#adbec4"/>
            <path id="Trazado_22247" data-name="Trazado 22247" d="M470.119,364.021l-.955.124a2.659,2.659,0,0,1-.008-2.207,8.819,8.819,0,0,0,1.292-.313A2.8,2.8,0,0,0,470.119,364.021Z" transform="translate(-464.093 -361.526)" fill="#adbec4"/>
          </g>
        </g>
        <path id="Trazado_22248" data-name="Trazado 22248" d="M345.368,227.9s2.114,11.409-2.161,15.955-1.447.81-.172-5.051S343.339,226.767,345.368,227.9Z" transform="translate(-301.939 -127.56)" fill="#ce364c"/>
        <path id="Trazado_22249" data-name="Trazado 22249" d="M373.522,221.012a20.292,20.292,0,0,1,10.264,8.438S379.079,219.316,373.522,221.012Z" transform="translate(-310.362 -125.766)" fill="#ce364c"/>
      </g>
      <g id="Grupo_45397" data-name="Grupo 45397" transform="translate(102.37 92.788)">
        <g id="Grupo_45389" data-name="Grupo 45389">
          <path id="Trazado_22250" data-name="Trazado 22250" d="M136.362,103.168a17.683,17.683,0,0,1,3.5,1.051c1.912,1.176,2.975,1.817,4.245,1.924s1.783,2.285,1.783,2.285,4.987,1.091,5.268-2.053c0,0-2.788-3.946-2.983-4.478-.4-1.059.323-2.65-.8-4.431a15.9,15.9,0,0,1-1.66-4.569s-1.107-.347-1.228.743.7,2.612.5,3.082a1.256,1.256,0,0,1-.15.264.059.059,0,0,0-.011.024,1.2,1.2,0,0,1-.847.555.152.152,0,0,1-.075.01c-1.249-.031-3.438-1.759-4.338-2.618-1.248-1.2-3.062-2.751-3.47-1.7s.952.985,3.23,4.148l-.228.326c.151.237-2.251-.962-4.167-2.464-1.321-1.03-1.6.2-1.369.727s1.706,1.378,2.653,2.136c.63.493,1.291,1,1.685,1.3l-.121.513c-3.264-.713-3.774-1.941-4.468-1.26s1.355,2.061,2.393,2.3a9.176,9.176,0,0,1,1.941.936c-2.6-.058-3.238-.889-3.672-.227C133.532,102.381,135.464,103.154,136.362,103.168Z" transform="translate(-133.174 -92.843)" fill="#ff8b66"/>
          <path id="Trazado_22251" data-name="Trazado 22251" d="M148.366,102.211c-.791-1.494.054-3.506.164-3.751a1.2,1.2,0,0,1-.847.555A2.893,2.893,0,0,0,148.366,102.211Z" transform="translate(-136.875 -94.295)" fill="#ef6e4b"/>
        </g>
        <g id="Grupo_45390" data-name="Grupo 45390" transform="translate(135.102)">
          <path id="Trazado_22252" data-name="Trazado 22252" d="M330.17,103.168a17.693,17.693,0,0,0-3.5,1.051c-1.912,1.176-2.975,1.817-4.244,1.924s-1.783,2.285-1.783,2.285-4.987,1.091-5.269-2.053c0,0,2.788-3.946,2.983-4.478.4-1.059-.323-2.65.8-4.431a15.9,15.9,0,0,0,1.66-4.569s1.107-.347,1.228.743-.7,2.612-.5,3.082a1.256,1.256,0,0,0,.15.264.054.054,0,0,1,.01.024,1.2,1.2,0,0,0,.847.555.156.156,0,0,0,.076.01c1.249-.031,3.438-1.759,4.338-2.618,1.248-1.2,3.062-2.751,3.47-1.7s-.952.985-3.23,4.148l.228.326c-.151.237,2.251-.962,4.167-2.464,1.322-1.03,1.6.2,1.369.727s-1.706,1.378-2.652,2.136c-.63.493-1.291,1-1.685,1.3l.12.513c3.264-.713,3.774-1.941,4.469-1.26s-1.355,2.061-2.393,2.3a9.158,9.158,0,0,0-1.941.936c2.6-.058,3.238-.889,3.671-.227C333,102.381,331.068,103.154,330.17,103.168Z" transform="translate(-315.371 -92.843)" fill="#ff8b66"/>
          <path id="Trazado_22253" data-name="Trazado 22253" d="M324.074,102.211c.79-1.494-.054-3.506-.165-3.751a1.2,1.2,0,0,0,.847.555A2.893,2.893,0,0,1,324.074,102.211Z" transform="translate(-317.578 -94.295)" fill="#ef6e4b"/>
        </g>
        <path id="Trazado_22254" data-name="Trazado 22254" d="M254.575,289.937,245,230.622l-19.182,2.142-19.182-2.142-9.58,59.315-4.6,57.528s1.463,4.766,11.032,1.473c0,0,7.1-53.358,8.2-54.533s12.371-36.027,12.371-36.027h3.526s11.273,34.852,12.371,36.027,8.2,54.533,8.2,54.533c9.569,3.293,11.032-1.473,11.032-1.473Z" transform="translate(-148.496 -128.456)" fill="#75708e"/>
        <path id="Trazado_22255" data-name="Trazado 22255" d="M228.734,153.159c1.212,1.179,7.173,3.306,10.32,0l2.135,2.1s-2.434,5.723-6.7,5.923-7.358-5.092-7.358-5.092Z" transform="translate(-157.459 -108.434)" fill="#0c476b"/>
        <path id="Trazado_22256" data-name="Trazado 22256" d="M252.061,140.6c7.135-3.071,30.187-11.237,30.187-11.237s15.5-19.414,18.657-22.3a6.1,6.1,0,0,1,4.434,4.888s-9.978,21.366-15.4,27.483-32.9,19.346-32.9,19.346Z" transform="translate(-163.904 -96.519)" fill="#105e99"/>
        <path id="Trazado_22257" data-name="Trazado 22257" d="M215.244,151.58c2.122-1.342,12.779,5.788,12.779,5.788s13.855-7.357,17.106-5.933c0,0,2.93,3.921,4.107,14S250.492,217,250.492,217a72.34,72.34,0,0,1-21.914,3.3c-14.363,0-22.091-4.119-22.091-4.119S203.924,158.739,215.244,151.58Z" transform="translate(-152.06 -107.94)" fill="#ffb878"/>
        <path id="Trazado_22258" data-name="Trazado 22258" d="M230.053,150.241s1.534,4.827,0,6.686c0,0,1.594,3.344,4.458,3.492,3.309.171,4.457-3.492,4.457-3.492s-1.75-4.662,0-6.3Z" transform="translate(-158.216 -107.679)" fill="#ef6e4b"/>
        <g id="Grupo_45394" data-name="Grupo 45394" transform="translate(64.794 17.492)">
          <path id="Trazado_22259" data-name="Trazado 22259" d="M223.962,136.751s-3.229-6.215-2.589-12.857,10.647-8.166,17.392-4.9c0,0-2-1.958-1.219-2.5s2.135,2.937,2.135,2.937,2.13-.653,2.457,0-2.183,1.01-2.183,1.01,4.353,2.414.286,15.259Z" transform="translate(-220.744 -116.432)" fill="#8b383e"/>
          <path id="Trazado_22260" data-name="Trazado 22260" d="M223.287,138.192s-2.408-2.4-2.7.406c-.343,3.254,2.612,4.565,3.19,3.53S223.287,138.192,223.287,138.192Z" transform="translate(-220.555 -121.81)" fill="#ff8b66"/>
          <path id="Trazado_22261" data-name="Trazado 22261" d="M246.748,138.421s2.408-2.4,2.7.406c.343,3.255-2.612,4.566-3.19,3.53S246.748,138.421,246.748,138.421Z" transform="translate(-227.155 -121.869)" fill="#ff8b66"/>
          <path id="Trazado_22262" data-name="Trazado 22262" d="M232.353,146.521c-5.343,0-8.358-3.49-8.358-13.956,0-5.4,2.747-8.711,8.731-8.711s8.505,3.312,8.505,8.711C241.231,143.811,237.872,146.521,232.353,146.521Z" transform="translate(-221.444 -118.351)" fill="#ff8b66"/>
          <path id="Trazado_22263" data-name="Trazado 22263" d="M244,140.363a1.265,1.265,0,1,1-1.385-.761A1.131,1.131,0,0,1,244,140.363Z" transform="translate(-225.983 -122.415)" fill="#db614d"/>
          <path id="Trazado_22264" data-name="Trazado 22264" d="M229.174,140.657a1.265,1.265,0,1,1-1.168-1.066A1.132,1.132,0,0,1,229.174,140.657Z" transform="translate(-222.145 -122.418)" fill="#db614d"/>
          <g id="Grupo_45391" data-name="Grupo 45391" transform="translate(13.049 11.156)">
            <path id="Trazado_22265" data-name="Trazado 22265" d="M240.677,132.837a.264.264,0,0,1-.193-.082,3.054,3.054,0,0,0-2.056-.743.271.271,0,0,1-.275-.259.265.265,0,0,1,.258-.275,3.566,3.566,0,0,1,2.459.908.266.266,0,0,1-.193.451Z" transform="translate(-238.153 -131.477)" fill="#8b383e"/>
          </g>
          <g id="Grupo_45392" data-name="Grupo 45392" transform="translate(5.248 11.156)">
            <path id="Trazado_22266" data-name="Trazado 22266" d="M227.9,132.837a.264.264,0,0,1-.184-.073.268.268,0,0,1-.01-.377,3.566,3.566,0,0,1,2.459-.908.266.266,0,0,1,.258.275.273.273,0,0,1-.275.259,3.077,3.077,0,0,0-2.055.743A.268.268,0,0,1,227.9,132.837Z" transform="translate(-227.631 -131.477)" fill="#8b383e"/>
          </g>
          <path id="Trazado_22267" data-name="Trazado 22267" d="M240.469,136.715c0,.664-.3,1.2-.667,1.2s-.668-.538-.668-1.2.3-1.2.668-1.2S240.469,136.052,240.469,136.715Z" transform="translate(-225.357 -121.365)" fill="#1a4850"/>
          <path id="Trazado_22268" data-name="Trazado 22268" d="M230.848,136.715c0,.664-.3,1.2-.667,1.2s-.667-.538-.667-1.2.3-1.2.667-1.2S230.848,136.052,230.848,136.715Z" transform="translate(-222.87 -121.365)" fill="#1a4850"/>
          <path id="Trazado_22269" data-name="Trazado 22269" d="M231.313,146.513s4.711.607,7.134-.556c0,0-1.37,3.208-3.943,2.919A3.659,3.659,0,0,1,231.313,146.513Z" transform="translate(-223.335 -124.064)" fill="#1a4850"/>
          <path id="Trazado_22270" data-name="Trazado 22270" d="M240.179,135.567a28.151,28.151,0,0,0-2.429-10.277s-3.988,1.843-4.865,1.407.836-1.407.836-1.407-6.58,2.169-6.975,1.734,2.181-1.734,2.181-1.734l-4.1,1.407s-1.264,5.228-.741,8.869a17.031,17.031,0,0,1-1.979-5.139c-.218-2.1.7-8.082,6.879-8.517s9.642.966,11.172,3.8S241.5,132.034,240.179,135.567Z" transform="translate(-220.949 -117.828)" fill="#8b383e"/>
          <g id="Grupo_45393" data-name="Grupo 45393" transform="translate(10.634 13.569)">
            <path id="Trazado_22271" data-name="Trazado 22271" d="M236.1,141.933a4.948,4.948,0,0,1-1.206-.179l.152-.547c.561.154,1.439.247,1.631.021.066-.079.04-.262-.073-.5-.772-1.642-.933-5.8-.939-5.976l.568-.022c0,.042.162,4.218.885,5.755a.985.985,0,0,1-.007,1.109A1.3,1.3,0,0,1,236.1,141.933Z" transform="translate(-234.895 -134.731)" fill="#db614d"/>
          </g>
        </g>
        <path id="Trazado_22272" data-name="Trazado 22272" d="M244.494,153.554s9.669,30.017,10.59,54.44c0,0,3.49.96,7.42-4.391s1.592-47.738-5.937-54.8C256.567,148.808,253.152,148.029,244.494,153.554Z" transform="translate(-161.948 -107.299)" fill="#105e99"/>
        <path id="Trazado_22273" data-name="Trazado 22273" d="M245.738,159.511s1.731-4.021.962-6.779-3.488,0-3.488,0A29.661,29.661,0,0,0,245.738,159.511Z" transform="translate(-161.617 -108.007)" fill="#0c476b"/>
        <path id="Trazado_22274" data-name="Trazado 22274" d="M201.95,140.4c-7.134-3.071-30.187-11.237-30.187-11.237s-15.535-19.98-18.7-22.862a8.883,8.883,0,0,0-4.176,6.792s9.76,20.028,15.183,26.145,32.9,19.346,32.9,19.346Z" transform="translate(-137.237 -96.322)" fill="#105e99"/>
        <path id="Trazado_22275" data-name="Trazado 22275" d="M221.079,153.554s-9.669,30.017-10.59,54.44c0,0-3.49.96-7.42-4.391s-1.592-47.738,5.936-54.8C209,148.808,212.42,148.029,221.079,153.554Z" transform="translate(-150.754 -107.299)" fill="#105e99"/>
        <path id="Trazado_22276" data-name="Trazado 22276" d="M225.483,159.511s-1.731-4.021-.962-6.779,3.488,0,3.488,0A29.623,29.623,0,0,1,225.483,159.511Z" transform="translate(-156.735 -108.007)" fill="#0c476b"/>
        <g id="Grupo_45395" data-name="Grupo 45395" transform="translate(99.569 217.7)">
          <path id="Trazado_22277" data-name="Trazado 22277" d="M287.092,403.207h-19.2a39.127,39.127,0,0,1,.8-15.272l8.777-1.507c.8,4.824,1.762,6.726,3.1,7.706h.008a13.473,13.473,0,0,0,3.582,1.441,4.605,4.605,0,0,1,2.964,2.758A8.161,8.161,0,0,1,287.092,403.207Z" transform="translate(-267.451 -386.429)" fill="#8b383e"/>
          <path id="Trazado_22278" data-name="Trazado 22278" d="M288.908,401.02c-4.734.592-15.132,1.605-14.5-1.136.527-2.289,4.915-2.906,7.945-3.062h.008a13.474,13.474,0,0,0,3.582,1.441A4.605,4.605,0,0,1,288.908,401.02Z" transform="translate(-269.243 -389.115)" fill="#b56268"/>
        </g>
        <g id="Grupo_45396" data-name="Grupo 45396" transform="translate(35.31 217.7)">
          <path id="Trazado_22279" data-name="Trazado 22279" d="M200.394,403.207H181.2a8.914,8.914,0,0,1-.329-3.7,4.65,4.65,0,0,1,3.269-3.935c1.663-.577,2.939-.79,3.985-1.771,1.136-1.07,1.984-3.045,2.7-7.376l8.777,1.507A39.3,39.3,0,0,1,200.394,403.207Z" transform="translate(-180.793 -386.429)" fill="#8b383e"/>
          <path id="Trazado_22280" data-name="Trazado 22280" d="M180.892,402.082a4.65,4.65,0,0,1,3.269-3.935c1.663-.577,2.939-.79,3.985-1.771,2.428.75,5.828,2.124,6.882,4.207C196.494,403.44,185.272,402.987,180.892,402.082Z" transform="translate(-180.819 -389)" fill="#b56268"/>
        </g>
      </g>
      <g id="Grupo_45405" data-name="Grupo 45405" transform="translate(189.613 145.527)">
        <g id="Grupo_45398" data-name="Grupo 45398" transform="translate(82.096 166.468)">
          <path id="Trazado_22281" data-name="Trazado 22281" d="M384.948,402.358a10.509,10.509,0,0,1-.083,1.375H361.542c0-.461.008-.922.033-1.375a42.844,42.844,0,0,1,2.19-11.394l5.828-2.5a9.325,9.325,0,0,0,3.417,6.174,8.282,8.282,0,0,0,1.333.856c.214.116.429.223.65.321a11.258,11.258,0,0,0,1.49.552,36.434,36.434,0,0,0,5.6.98C384.569,397.731,384.948,400.6,384.948,402.358Z" transform="translate(-361.542 -388.461)" fill="#285d6f"/>
          <path id="Trazado_22282" data-name="Trazado 22282" d="M384.948,407.2a10.509,10.509,0,0,1-.083,1.375H361.542c0-.461.008-.922.033-1.375Z" transform="translate(-361.542 -393.305)" fill="#4f8a99"/>
          <path id="Trazado_22283" data-name="Trazado 22283" d="M377.44,397.643l-3.235,1.037-.683-1.186,2.585-.708A8.287,8.287,0,0,0,377.44,397.643Z" transform="translate(-364.639 -390.613)" fill="#4f8a99"/>
          <path id="Trazado_22284" data-name="Trazado 22284" d="M380.465,398.927l-2.182,1.449-1.342-.527,2.033-1.473A11.251,11.251,0,0,0,380.465,398.927Z" transform="translate(-365.522 -391.024)" fill="#4f8a99"/>
        </g>
        <g id="Grupo_45399" data-name="Grupo 45399" transform="translate(0 163.833)">
          <path id="Trazado_22285" data-name="Trazado 22285" d="M267.219,401.439a5.834,5.834,0,0,1-.263,1.375H251.421a7,7,0,0,1-.437-1.375c-1.531-7.434,8.793-16.531,8.793-16.531l3.277,4.371s-.379,7,2.4,8.455A3.548,3.548,0,0,1,267.219,401.439Z" transform="translate(-250.829 -384.908)" fill="#285d6f"/>
          <path id="Trazado_22286" data-name="Trazado 22286" d="M251.038,407.2h16.235a5.836,5.836,0,0,1-.263,1.375H251.475A7,7,0,0,1,251.038,407.2Z" transform="translate(-250.883 -390.671)" fill="#4f8a99"/>
          <path id="Trazado_22287" data-name="Trazado 22287" d="M266.266,400.875s-6.545-1.493-9.529.44v-1.08S262.242,397.559,266.266,400.875Z" transform="translate(-252.356 -388.606)" fill="#4f8a99"/>
          <path id="Trazado_22288" data-name="Trazado 22288" d="M264.969,398.638a10.677,10.677,0,0,0-8.232,0l.463-1.09S262.041,395.717,264.969,398.638Z" transform="translate(-252.356 -388.029)" fill="#4f8a99"/>
        </g>
        <path id="Trazado_22289" data-name="Trazado 22289" d="M350.563,302.59c.008,6.249-5.541,57.193-5.541,57.193a32.41,32.41,0,0,1-9.995-.56c-1.523-25.818-1.671-48.022-1.671-48.022L306.764,291.27l-.066-.049s-.1.452-.28,1.259c-1.318,5.845-6.891,30.33-9.213,35.936-2.643,6.389-31.537,33.254-31.537,33.254-5.368-.741-9.922-4.629-9.922-4.629,10.373-17.207,24.517-34.463,24.517-34.463,1.1-6.2,1.894-19.989,2.363-30.3.008-.156.016-.321.024-.478.313-6.981.469-12.251.469-12.251l-4.874-9.994,30.964-11.378,6.94,8.883s1.589,1.473,4.092,3.828l.346.321C329.882,279.984,350.563,299.791,350.563,302.59Z" transform="translate(-252.1 -188.319)" fill="#8bbddb"/>
        <g id="Grupo_45400" data-name="Grupo 45400" transform="translate(30.526 79.356)">
          <path id="Trazado_22290" data-name="Trazado 22290" d="M292,300.752c.008-.156.016-.321.025-.478,6.52-3.54,5.425-9.188,5.409-9.245l.4-.082C297.849,291,299.018,297.072,292,300.752Z" transform="translate(-291.996 -276.144)" fill="#6097b2"/>
          <path id="Trazado_22291" data-name="Trazado 22291" d="M322.44,292.713a35.112,35.112,0,0,1,.478,3.993l-.066-.049s-.1.452-.28,1.259c-.288-9.681-4.281-15.4-4.33-15.469l.337-.239a27.918,27.918,0,0,1,3.779,10.036c4.709-4.183.1-12.753.05-12.835l.362-.2C322.819,279.3,327.7,288.374,322.44,292.713Z" transform="translate(-298.78 -273.111)" fill="#6097b2"/>
          <path id="Trazado_22292" data-name="Trazado 22292" d="M340.761,274.524c-.008.008-.024.008-.033.017a1.779,1.779,0,0,1-.642.107c-2.28,0-6.109-3.194-6.29-3.351l.271-.313c1.244,1.054,4.709,3.582,6.347,3.219Z" transform="translate(-302.801 -270.984)" fill="#6097b2"/>
        </g>
        <path id="Trazado_22293" data-name="Trazado 22293" d="M289.013,201.525s9.418-1.516,14.138,1.493,10.915,10.86,10.915,10.86-7.357.971-8.189,5.968C305.877,219.846,300.533,207.12,289.013,201.525Z" transform="translate(-260.699 -173.575)" fill="#adbec4"/>
        <path id="Trazado_22294" data-name="Trazado 22294" d="M266.084,206.553c-3.984,2.154-10.645,10.24-10.945,15.214-.294,4.85,3.3,9.311,5.722,13.1,7.558,11.834,15.516,22.29,18.9,36.17.021.088,17.289,6.94,37.553-17.419,0,0-11.451-15.407-15.407-28.523-1.611-5.339-3.249-11.011-6.341-15.716a16.833,16.833,0,0,0-15.311-7.741C275.117,202.057,270.009,204.43,266.084,206.553Z" transform="translate(-251.939 -173.69)" fill="#cfd8dc"/>
        <path id="Trazado_22295" data-name="Trazado 22295" d="M267.65,201.183s2.549,4.354,1.371,6.749c0,0,8.744,3.019,8.744-1.874,0,0-1.648-3.667-1.027-6.038Z" transform="translate(-255.177 -173.285)" fill="#ef6e4b"/>
        <path id="Trazado_22296" data-name="Trazado 22296" d="M290.922,241.8s-4.864,1.382-6.092,3.1a24.19,24.19,0,0,0-2.32,5.584h8.411l1.582-2.91,1.852-3.878Z" transform="translate(-259.018 -184.084)" fill="#ef6e4b"/>
        <g id="Grupo_45404" data-name="Grupo 45404" transform="translate(3.323 0)">
          <path id="Trazado_22297" data-name="Trazado 22297" d="M276.014,187.645s3.415-1.432,1.206-11.7c-1.464-6.806-3.572-7.82-4.935-7.88,0,0-1.667-2.512-7.449-1.31a10.742,10.742,0,0,0-8.51,7.678c-1.452,4.645,1.452,14.6,5.276,15.593Z" transform="translate(-255.475 -164.602)" fill="#164353"/>
          <path id="Trazado_22298" data-name="Trazado 22298" d="M284.018,185.212s2.153-3,2.965-.043c.942,3.421-1.989,5.345-2.79,4.339S284.018,185.212,284.018,185.212Z" transform="translate(-262.671 -169.11)" fill="#ff8b66"/>
          <path id="Trazado_22299" data-name="Trazado 22299" d="M258.829,189.683s-3-2.145-2.821.912c.207,3.542,3.6,4.422,4.036,3.213S258.829,189.683,258.829,189.683Z" transform="translate(-255.489 -170.424)" fill="#ff8b66"/>
          <path id="Trazado_22300" data-name="Trazado 22300" d="M270.864,196.13c5.715-.942,8.325-5.208,6.478-16.405-.953-5.776-4.476-8.833-10.877-7.777s-8.514,5.044-7.561,10.82C260.888,194.8,264.959,197.1,270.864,196.13Z" transform="translate(-256.183 -165.976)" fill="#ff8b66"/>
          <path id="Trazado_22301" data-name="Trazado 22301" d="M262.42,191.206a1.372,1.372,0,1,0,1.348-1.057A1.227,1.227,0,0,0,262.42,191.206Z" transform="translate(-257.148 -170.734)" fill="#db614d"/>
          <path id="Trazado_22302" data-name="Trazado 22302" d="M278.336,188.9a1.371,1.371,0,1,0,1.06-1.346A1.227,1.227,0,0,0,278.336,188.9Z" transform="translate(-261.256 -170.051)" fill="#db614d"/>
          <g id="Grupo_45401" data-name="Grupo 45401" transform="translate(6.591 12.375)">
            <path id="Trazado_22303" data-name="Trazado 22303" d="M264.489,182.515a.29.29,0,0,1-.24-.452,3.876,3.876,0,0,1,2.471-1.407.287.287,0,0,1,.325.249.291.291,0,0,1-.248.326,3.331,3.331,0,0,0-2.069,1.157A.289.289,0,0,1,264.489,182.515Z" transform="translate(-264.199 -180.654)" fill="#1a4850"/>
          </g>
          <g id="Grupo_45402" data-name="Grupo 45402" transform="translate(14.793 11.339)">
            <path id="Trazado_22304" data-name="Trazado 22304" d="M278.109,180.379a.288.288,0,0,1-.174-.059,3.323,3.323,0,0,0-2.329-.432.286.286,0,0,1-.34-.228.29.29,0,0,1,.228-.34,3.871,3.871,0,0,1,2.79.538.289.289,0,0,1-.174.521Z" transform="translate(-275.259 -179.258)" fill="#1a4850"/>
          </g>
          <path id="Trazado_22305" data-name="Trazado 22305" d="M265.983,186.647c.117.71.532,1.233.925,1.168s.619-.693.5-1.4-.532-1.232-.925-1.167S265.866,185.937,265.983,186.647Z" transform="translate(-258.061 -169.464)" fill="#1a4850"/>
          <path id="Trazado_22306" data-name="Trazado 22306" d="M276.276,184.949c.117.71.532,1.232.926,1.168s.619-.693.5-1.4-.532-1.233-.926-1.168S276.159,184.239,276.276,184.949Z" transform="translate(-260.722 -169.025)" fill="#1a4850"/>
          <path id="Trazado_22307" data-name="Trazado 22307" d="M276.49,194.131s-4.959,1.33-7.708.8c0,0,1.9,2.394,4.614,1.7S276.49,194.131,276.49,194.131Z" transform="translate(-258.793 -171.763)" fill="#1a4850"/>
          <path id="Trazado_22308" data-name="Trazado 22308" d="M273.836,173.967a29.891,29.891,0,0,1-14.549,5.027l.23,7.208s-7.547-13.906,7.38-16.37,10.582,13.07,10.582,13.07S277.016,176.2,273.836,173.967Z" transform="translate(-255.905 -165.414)" fill="#0e3944"/>
          <g id="Grupo_45403" data-name="Grupo 45403" transform="translate(11.863 14.438)">
            <path id="Trazado_22309" data-name="Trazado 22309" d="M272.1,189.43l-.042-.623c.009,0,.87-.067,1.094-.6.093-.219-.274-.919-.6-1.536a11.8,11.8,0,0,1-1.246-3.111l.612-.123a11.263,11.263,0,0,0,1.186,2.944c.48.916.827,1.577.621,2.068A1.989,1.989,0,0,1,272.1,189.43Z" transform="translate(-271.309 -183.436)" fill="#db614d"/>
          </g>
          <path id="Trazado_22310" data-name="Trazado 22310" d="M276.742,172.536c-10.851-4.709-21.093,5.055-21.093,5.055s-1.194-7.911.9-9.764a12.462,12.462,0,0,1,1.737-1.292,18.321,18.321,0,0,1,14.086-1.926,3.555,3.555,0,0,1,1.326.741C275.425,167.144,276.742,172.536,276.742,172.536Z" transform="translate(-255.31 -163.966)" fill="#ce364c"/>
          <path id="Trazado_22311" data-name="Trazado 22311" d="M276.247,170.775a25.662,25.662,0,0,0-17.61,3.82s-.544-5.1.469-8.06a18.321,18.321,0,0,1,14.086-1.926C274.9,166.552,276.247,170.775,276.247,170.775Z" transform="translate(-256.133 -163.966)" fill="#cfd8dc"/>
          <path id="Trazado_22312" data-name="Trazado 22312" d="M256.978,177.3s1.444-6.136,3.391-7.865c3.238-2.875,12.336-3.863,17.118-2.134s0,6.953,0,6.953S269.866,168.8,256.978,177.3Z" transform="translate(-255.741 -164.608)" fill="#a02e44"/>
        </g>
        <path id="Trazado_22313" data-name="Trazado 22313" d="M274.1,236.073a30.373,30.373,0,0,0,10.068,9.164s7.935-6.888,18.224-6.268c0,0-8.527,15.385-15.85,17.089-3.847.9-17.761-8.318-17.761-8.318S271.56,237.947,274.1,236.073Z" transform="translate(-255.47 -182.604)" fill="#ff8b66"/>
        <path id="Trazado_22314" data-name="Trazado 22314" d="M256.837,221.327c3.408-5.55,11.272,2.654,13.948,8.512s4.629,7.1,4.629,7.1-7.856,3.282-7.8,9.171C267.613,246.11,249.4,233.435,256.837,221.327Z" transform="translate(-251.921 -178.316)" fill="#adbec4"/>
        <path id="Trazado_22315" data-name="Trazado 22315" d="M289.533,238.184s4.786-4.7,20.522-10.823l-2.033-6.392a7.016,7.016,0,0,1,5.125-2.376s8.063,11.385,6.674,14.786C318.955,235.5,302.138,237.732,289.533,238.184Z" transform="translate(-260.833 -178.086)" fill="#ef6e4b"/>
        <path id="Trazado_22316" data-name="Trazado 22316" d="M312.774,229.869a4.2,4.2,0,0,1,.706-1.493c.581-.821.424-2.315.633-2.778a7.945,7.945,0,0,1,2.268-2.724c.822-.369,1.9-.971,2.129.072s-1.472.747-2.236,2.248a6.622,6.622,0,0,1,3-.227c1.326.314,1.7,1.526.064,1.486a7.351,7.351,0,0,0-2.989.9s1.7.256,1.427,1.041C317.393,229.477,315.317,228.809,312.774,229.869Z" transform="translate(-266.841 -179.06)" fill="#ff8b66"/>
      </g>
      <g id="Grupo_45419" data-name="Grupo 45419" transform="translate(73.555 139.786)">
        <path id="Trazado_22317" data-name="Trazado 22317" d="M155.056,249.446c1.407,3.6,7.169,9.776,7.169,9.776s14.077-8.438,20.571-4.888,11.655,5.716,15.867,4.17-13.849-34.392-13.849-34.392L161.4,215.177s-.511,5.923-3.186,6.975-5.528,10.829-5.337,12.681S155.056,249.446,155.056,249.446Z" transform="translate(-109.449 -171.461)" fill="#3e6575"/>
        <path id="Trazado_22318" data-name="Trazado 22318" d="M171.76,270.881s-6.037,11.836-18.5,26.994c0,0-1.278,18.026-34.243,46.386l-3.451-2.715s19.632-30.752,23.558-40.18-2.17-18.067,15.894-41.915Z" transform="translate(-99.807 -182.906)" fill="#ef6e4b"/>
        <path id="Trazado_22319" data-name="Trazado 22319" d="M162.187,246.62c-5.2,9.956-6.942,22.685-6.942,22.685l-2.367,5.971a66.589,66.589,0,0,0,18.09,6.175l3.889-10.292Z" transform="translate(-109.452 -179.589)" fill="#662c33"/>
        <path id="Trazado_22320" data-name="Trazado 22320" d="M194.94,273.608s2.574,13.035,2.15,32.656c0,0,10.142,14.956,1.772,57.629h-4.391s-3.587-36.306-6.331-46.145-12.878-12.857-13.427-42.769Z" transform="translate(-115.097 -186.565)" fill="#ff8b66"/>
        <g id="Grupo_45407" data-name="Grupo 45407" transform="translate(51.876 66.961)">
          <path id="Trazado_22321" data-name="Trazado 22321" d="M194.816,280.627s-8.258,1.482-22.8.8l-.231-1.639-.057-.42-1.507-10.6a28.534,28.534,0,0,1-2.841-4.545c-.173-.329-.337-.667-.5-1.02-1.959-4.174-3.7-10.242-1.746-16.573l3.071.14.428.024,10.274.469.436.025,3.375.156.527.025,2.19.1s11.131,10.019,9.147,28.543l.14,2.577.016.42Z" transform="translate(-164.274 -246.551)" fill="#8b383e"/>
          <g id="Grupo_45406" data-name="Grupo 45406" transform="translate(2.418)">
            <path id="Trazado_22322" data-name="Trazado 22322" d="M169.47,246.764c-.288.848-2.231,7.138-1.252,17.429-.173-.329-.337-.667-.5-1.02-.733-9.41.955-15.281,1.326-16.433.049-.14.074-.205.074-.214l.386.14C169.5,246.673,169.486,246.707,169.47,246.764Z" transform="translate(-167.534 -246.525)" fill="#662c33"/>
            <path id="Trazado_22323" data-name="Trazado 22323" d="M197.33,279.158c-2.922.749-7.879.955-12.588.955-4.223,0-8.232-.173-10.365-.272l-.057-.42c3.7.181,13.427.56,19.7-.123l-.4-6.628a41.756,41.756,0,0,0-4.5-18.894,9.223,9.223,0,0,1-7.624-6.463c-.05-.189-.074-.3-.074-.313l.4-.065c0,.007.033.156.107.4a8.784,8.784,0,0,0,6.949,5.969,40.908,40.908,0,0,0-3.573-5.813c-.181-.247-.3-.386-.3-.4l.313-.263c.016.016.205.247.518.684,1.91,2.593,8.356,12.349,8.192,25.135l.4,6.594a21.775,21.775,0,0,0,2.882-.51Z" transform="translate(-169.288 -246.605)" fill="#662c33"/>
          </g>
        </g>
        <path id="Trazado_22324" data-name="Trazado 22324" d="M166.9,186.3c-3.277-1.8-26.889,7.455-26.889,7.455s-3.493,6.231-1.316,8.674,9.9,1.366,12.271,0,8.636-2.4,8.636-2.4Z" transform="translate(-105.602 -163.938)" fill="#8bbddb"/>
        <path id="Trazado_22325" data-name="Trazado 22325" d="M197.94,158.932a12.341,12.341,0,0,1,6.662,7.5c1.784,5.619-3.55,19.845-1.706,26.385s1.557,18.889-4.2,21.5-17.564-2.058-20.1-9.193-1.441-34.165,3.432-43.359S196.766,157.2,197.94,158.932Z" transform="translate(-115.758 -156.223)" fill="#f24052"/>
        <path id="Trazado_22326" data-name="Trazado 22326" d="M193.637,191.717c1.287,1.387,4.594-1.085,4.594-1.085s-.067,12.262-3.631,13.2-12.647-9.659-12.273-12.541S190.785,188.641,193.637,191.717Z" transform="translate(-117.062 -164.764)" fill="#8bbddb"/>
        <path id="Trazado_22327" data-name="Trazado 22327" d="M174.936,188.436a25.154,25.154,0,0,0,9.885,4.517c6.281,1.456,9.684-1.5,12.9,2.553,4.821,6.078-3.022,17.283-7.15,23.089a34.611,34.611,0,0,0-5.441,13.929s-10.9,3.166-20.295-.944l-.7-13.369S158.207,200.2,174.936,188.436Z" transform="translate(-112.098 -164.549)" fill="#0e3944"/>
        <path id="Trazado_22328" data-name="Trazado 22328" d="M194.251,201.514s4.979-11.867,6.421-12.624,5.1,1.061,5.834,2.684,0,5.164,0,5.164S202.578,192.256,194.251,201.514Z" transform="translate(-120.147 -164.621)" fill="#8bbddb"/>
        <path id="Trazado_22329" data-name="Trazado 22329" d="M217.122,252.828c-2.264,4.635-7.822,5.968-7.822,5.968s-.42-.642-1.128-1.8c-.074-.115-.156-.247-.231-.378-4.371-7.089-17.733-29.77-17.469-41.567a30.784,30.784,0,0,1,9.5-21.833c4.668,1.112,6.142,2.388,6.142,2.388a57.68,57.68,0,0,1,.131,17.667c-1.441,9.64-4.058,12.193-2.741,12.917s0,2.157,0,2.157,7.747,10.793,9.2,14.152c.938,2.19,2.535,5.911,3.532,8.232.065.165.131.33.2.478Z" transform="translate(-119.169 -165.786)" fill="#6097b2"/>
        <path id="Trazado_22330" data-name="Trazado 22330" d="M207.106,196.439s-5.547,4.112-2.316,10.394l15.375,15.917c-8.438,8.992-9.275,12.684-15.375,16.829l2.316,3.586s21.363-16.419,21.4-20.415C228.515,221.039,215.452,200.345,207.106,196.439Z" transform="translate(-122.609 -166.618)" fill="#ff8b66"/>
        <path id="Trazado_22331" data-name="Trazado 22331" d="M201.5,254.615a45.958,45.958,0,0,0-4.776.786c-1.846.462-4.306.923-4.383,1.307s4.075,0,4.075,0-3.383,1.39-3.46,1.926,4.306-.388,4.306-.388-2.768,1.691-2.615,2.153,3.564-.693,3.564-.693a10.741,10.741,0,0,1-1.292,2.384s.661.363,2-1.126,3.481-1.011,5.174-2.331S203.038,254.416,201.5,254.615Z" transform="translate(-119.651 -181.653)" fill="#ff8b66"/>
        <path id="Trazado_22332" data-name="Trazado 22332" d="M175.045,189.881s-4.22,2.727-6.885,9.313-11.075,18.98-13.045,22.183-.6,20.628-.6,20.628-2.47-10.566-3.567-14.682,3.544-14.288,4.242-14.827,4.264.448,3.579-3.682,8.886-21.926,11.441-22.427C170.211,186.385,174.3,187.154,175.045,189.881Z" transform="translate(-108.911 -164.019)" fill="#6097b2"/>
        <path id="Trazado_22333" data-name="Trazado 22333" d="M160.557,189.692a3.128,3.128,0,0,1-.255.412,10.682,10.682,0,0,1-2.733,2.469s-3.22,4.512-3.252,5.03c-.033.445-5.59,4.479-8.06,4.4h-.008a1.221,1.221,0,0,1-.816-.28c-1.465-1.383,4.99-12.991,6.413-15.494.09-.165.165-.288.214-.37.033-.066.058-.108.058-.108s-1.137-4.231,3.606-3.441c3.943.65,4.725,3.788,5.137,5.887A2.242,2.242,0,0,1,160.557,189.692Z" transform="translate(-107.472 -162.94)" fill="#6097b2"/>
        <path id="Trazado_22334" data-name="Trazado 22334" d="M142.613,192.971c3.257-4.282,14.72-12.587,20.757-15.045l1.51,2.806s-11.667,10.257-14.408,14.644-6.136,6.2-9.379,4.741S141.927,193.872,142.613,192.971Z" transform="translate(-106.086 -161.833)" fill="#ff8b66"/>
        <path id="Trazado_22335" data-name="Trazado 22335" d="M157.787,188.756l-.618.707-.313.363-1.021,1.169s-2.569,3.112-2.469,4.364c.073.9-4.874,4.915-8.743,6.586-1.573.683-2.972.98-3.788.51-2.8-1.614-2.173-6.462-.584-9.747,1.383-2.865,7.5-6.562,9.072-7.467a4.055,4.055,0,0,1,.363-.214l.008-.008.584-2.272s2.133-1.284,3.812-.495c0,0-3.705.156-3.1,1.6C151.621,185.3,156.758,188.706,157.787,188.756Z" transform="translate(-105.839 -162.884)" fill="#8bbddb"/>
        <g id="Grupo_45408" data-name="Grupo 45408" transform="translate(56.394 4.958)">
          <path id="Trazado_22336" data-name="Trazado 22336" d="M179.373,171.942c-3.729,1.532-3.194,4.907-6.611,4.907-2.116,0-2.4-2.421-2.4-2.421a26.071,26.071,0,0,0,1.7-7.269c.14-1.68.7-1.029.7-1.029,0-.156-.008-.3-.016-.453-.05-1.128-.256-1.951.486-1.465.839.544,1.128,3.738,1.128,3.738.691-4.66-.337-5.352.469-4.94,1.1.56,1.111,4.676,1.111,4.8.889-2.709.651-4.256,1.268-3.639s-.313,5.6-.683,7.426c-.082.412-.14.667-.14.667C179.341,170.814,179.373,171.942,179.373,171.942Z" transform="translate(-170.367 -162.909)" fill="#ff8b66"/>
          <path id="Trazado_22337" data-name="Trazado 22337" d="M177.8,174.625c-.082.412-.14.667-.14.667a2.729,2.729,0,0,0-2.362,1.342A2.438,2.438,0,0,1,177.8,174.625Z" transform="translate(-171.641 -165.937)" fill="#ef6e4b"/>
          <path id="Trazado_22338" data-name="Trazado 22338" d="M173.8,170.438c.025-.4.19-2.659-.205-3.343,0-.156-.008-.3-.016-.453C174.432,166.824,173.889,169.96,173.8,170.438Z" transform="translate(-171.196 -163.874)" fill="#ef6e4b"/>
        </g>
        <path id="Trazado_22339" data-name="Trazado 22339" d="M177,194.939s2.52-6.831,3.322-8.356,4.978-1.264,8.138-.674,3.806,4.821,3.806,4.821S182.648,186.192,177,194.939Z" transform="translate(-115.686 -163.776)" fill="#8bbddb"/>
        <path id="Trazado_22340" data-name="Trazado 22340" d="M195.525,178.82a27.482,27.482,0,0,0-2.971,11.758s-4.9,3.333-6.66-.842a31.717,31.717,0,0,0,.962-12.853C186.254,171.939,195.525,178.82,195.525,178.82Z" transform="translate(-117.986 -161.101)" fill="#ef6e4b"/>
        <g id="Grupo_45412" data-name="Grupo 45412" transform="translate(64.631 0.95)">
          <path id="Trazado_22341" data-name="Trazado 22341" d="M184.752,169.075s-.9-3.2-2.494-.949c-1.85,2.6.036,5.133,1.023,4.529S184.752,169.075,184.752,169.075Z" transform="translate(-181.476 -160.043)" fill="#ff8b66"/>
          <path id="Trazado_22342" data-name="Trazado 22342" d="M204.319,180.714s3.2-.89,2.105,1.641c-1.267,2.931-4.408,2.631-4.4,1.474S204.319,180.714,204.319,180.714Z" transform="translate(-186.786 -163.464)" fill="#ff8b66"/>
          <path id="Trazado_22343" data-name="Trazado 22343" d="M186.33,181.318c-4.543-2.558-5.436-6.97-.424-15.87,2.585-4.591,6.507-6.092,11.6-3.226s5.646,6.888,3.06,11.479C195.176,183.264,191.023,183.961,186.33,181.318Z" transform="translate(-181.745 -158.346)" fill="#ff8b66"/>
          <path id="Trazado_22344" data-name="Trazado 22344" d="M201.6,180.863a1.235,1.235,0,1,1-.814-1.31A1.1,1.1,0,0,1,201.6,180.863Z" transform="translate(-186.08 -163.181)" fill="#db614d"/>
          <path id="Trazado_22345" data-name="Trazado 22345" d="M188.873,174a1.235,1.235,0,1,1-.483-1.464A1.1,1.1,0,0,1,188.873,174Z" transform="translate(-182.833 -161.328)" fill="#db614d"/>
          <g id="Grupo_45409" data-name="Grupo 45409" transform="translate(14.39 9.623)">
            <path id="Trazado_22346" data-name="Trazado 22346" d="M202.667,172.786a.26.26,0,0,1-.253-.2,2.989,2.989,0,0,0-1.392-1.617.261.261,0,1,1,.241-.462,3.483,3.483,0,0,1,1.656,1.95.26.26,0,0,1-.188.317A.238.238,0,0,1,202.667,172.786Z" transform="translate(-200.882 -170.481)" fill="#1a4850"/>
          </g>
          <g id="Grupo_45410" data-name="Grupo 45410" transform="translate(7.36 6.496)">
            <path id="Trazado_22347" data-name="Trazado 22347" d="M193.977,167.257a.263.263,0,0,1-.135-.037,3,3,0,0,0-2.1-.352.26.26,0,0,1-.151-.5,3.471,3.471,0,0,1,2.526.4.26.26,0,0,1-.135.483Z" transform="translate(-191.402 -166.265)" fill="#1a4850"/>
          </g>
          <path id="Trazado_22348" data-name="Trazado 22348" d="M200.277,176.012c-.318.564-.83.878-1.143.7s-.31-.777.007-1.341.83-.878,1.143-.7S200.6,175.447,200.277,176.012Z" transform="translate(-185.98 -161.929)" fill="#1a4850"/>
          <path id="Trazado_22349" data-name="Trazado 22349" d="M191.687,171.4c-.318.564-.83.879-1.143.7s-.31-.777.007-1.341.83-.879,1.143-.7S192,170.84,191.687,171.4Z" transform="translate(-183.76 -160.738)" fill="#1a4850"/>
          <path id="Trazado_22350" data-name="Trazado 22350" d="M189.174,179.7s2.606,1.989,4.49,2.05c0,0-2,1.631-3.443.573A2.6,2.6,0,0,1,189.174,179.7Z" transform="translate(-183.453 -163.242)" fill="#1a4850"/>
          <path id="Trazado_22351" data-name="Trazado 22351" d="M198.91,174.573s1.2-1.157,1.686-.75.234,1.831.234,1.831l1.046.027-.865-.349s.279-1.479-.26-1.785C199.985,173.112,198.91,174.573,198.91,174.573Z" transform="translate(-185.982 -161.63)" fill="#1a4850"/>
          <path id="Trazado_22352" data-name="Trazado 22352" d="M191.966,171.084s.369-1.622-.234-1.83-1.685.75-1.685.75l-.566-.882.747.56s1.12-1.006,1.66-.7C192.658,169.408,191.966,171.084,191.966,171.084Z" transform="translate(-183.545 -160.455)" fill="#1a4850"/>
          <path id="Trazado_22353" data-name="Trazado 22353" d="M199.417,163.282a2.6,2.6,0,0,0-3.875-.466c-2.248,1.8-7.317,4.67-9.811,3.72s5.456-11.575,12.359-8.464,6.281,13.241,3.41,16.462-1.513.22-1.513.22a36.123,36.123,0,0,1,1.151-7.6A2.879,2.879,0,0,0,199.417,163.282Z" transform="translate(-182.454 -157.504)" fill="#f24052"/>
          <g id="Grupo_45411" data-name="Grupo 45411" transform="translate(8.918 13.208)">
            <path id="Trazado_22354" data-name="Trazado 22354" d="M193.9,177.532a1.618,1.618,0,0,1-.394-.051l.138-.545a.649.649,0,0,0,.8-.27.7.7,0,0,0,.01-.736c-.072-.075-.194-.067-.366.023l-.261-.5a.808.808,0,0,1,1.034.087,1.236,1.236,0,0,1,.068,1.407A1.154,1.154,0,0,1,193.9,177.532Z" transform="translate(-193.502 -175.316)" fill="#db614d"/>
          </g>
        </g>
        <g id="Grupo_45414" data-name="Grupo 45414" transform="translate(80.13 29.701)">
          <path id="Trazado_22355" data-name="Trazado 22355" d="M229.462,222.077c-.271,3.992-10.151,16.992-11.8,17.453a4.383,4.383,0,0,0-1.276.634c-.173.124-.346.255-.51.387a12.462,12.462,0,0,0-1.647,1.63c-2.882-.189-10.974-3.935-8.373-4.758a1.991,1.991,0,0,0,.519-.272,3.014,3.014,0,0,0,.337-.263c3.062-2.569,9.023-12.991,9.064-13.782.033-.864,1.062-1.028,1.062-1.028s-5.623-8.258-8.883-9.254-4.907-4.939-4.907-4.939c-3.219-13.625,6.142-11.485,6.142-11.485C216.092,200.507,229.733,218.076,229.462,222.077Z" transform="translate(-202.377 -196.277)" fill="#8bbddb"/>
          <g id="Grupo_45413" data-name="Grupo 45413" transform="translate(4 40.611)">
            <path id="Trazado_22356" data-name="Trazado 22356" d="M217.783,254.321c-.173.124-.346.255-.51.387a20.606,20.606,0,0,1-9.5-3.4,3.014,3.014,0,0,0,.337-.263A20.027,20.027,0,0,0,217.783,254.321Z" transform="translate(-207.772 -251.044)" fill="#3e6575"/>
          </g>
        </g>
        <g id="Grupo_45415" data-name="Grupo 45415" transform="translate(43.485 22.142)">
          <path id="Trazado_22357" data-name="Trazado 22357" d="M162.558,190.693a3.129,3.129,0,0,1-.255.412,10.675,10.675,0,0,1-1.812-.222,13.611,13.611,0,0,1-6.644-3.656c-.337-.329-.634-.642-.889-.93a4.047,4.047,0,0,1,.363-.214c.214.239.46.5.741.774a13.1,13.1,0,0,0,6.743,3.663A9.992,9.992,0,0,0,162.558,190.693Z" transform="translate(-152.958 -186.083)" fill="#3e6575"/>
        </g>
        <g id="Grupo_45416" data-name="Grupo 45416" transform="translate(88.773 84.949)">
          <path id="Trazado_22358" data-name="Trazado 22358" d="M222.521,271.262a11.6,11.6,0,0,1-8.258,5.788c-.074-.115-.156-.247-.231-.378a11.3,11.3,0,0,0,8.291-5.887C222.389,270.949,222.455,271.114,222.521,271.262Z" transform="translate(-214.033 -270.784)" fill="#3e6575"/>
        </g>
        <g id="Grupo_45417" data-name="Grupo 45417" transform="translate(0 153.174)">
          <path id="Trazado_22359" data-name="Trazado 22359" d="M116.65,369.953a14.485,14.485,0,0,0-2.1,2.873c-1.071,1.86.107,3.573-5.072,7.888,0,0-10.447-6.118-15.164-13.98a3.043,3.043,0,0,1,2.362-2.774c1.226-.28,4.6,1.3,7.846,1.91a13.332,13.332,0,0,0,1.375.189,7.977,7.977,0,0,0,1.662-.008,4.915,4.915,0,0,0,1.4-.337h.008a4.159,4.159,0,0,0,2.428-2.923,2.841,2.841,0,0,1,.922,4.256S115.613,365.607,116.65,369.953Z" transform="translate(-94.315 -362.791)" fill="#cfd8dc"/>
          <path id="Trazado_22360" data-name="Trazado 22360" d="M109.479,382.083s-10.447-6.118-15.164-13.98c0,0,1.753-.37,3.2,2.231S110.327,378.864,109.479,382.083Z" transform="translate(-94.315 -364.159)" fill="#adbec4"/>
          <path id="Trazado_22361" data-name="Trazado 22361" d="M114.138,369.368c-.848,1.341-.831-1.137-1.96-2.3a4.919,4.919,0,0,0,1.4-.337h.008A2.163,2.163,0,0,1,114.138,369.368Z" transform="translate(-98.932 -363.81)" fill="#adbec4"/>
          <path id="Trazado_22362" data-name="Trazado 22362" d="M109.794,369.5c-.9.848-1.186-1.366-1.712-2.552a13.341,13.341,0,0,0,1.375.189C109.983,367.849,110.478,368.845,109.794,369.5Z" transform="translate(-97.874 -363.864)" fill="#adbec4"/>
        </g>
        <g id="Grupo_45418" data-name="Grupo 45418" transform="translate(71.556 172.01)">
          <path id="Trazado_22363" data-name="Trazado 22363" d="M205.866,403.663H191.088a8.694,8.694,0,0,1,0-4.322c.264-.98,1.8-1.894,3.219-3.17a11.353,11.353,0,0,0,1.128-1.144,6.639,6.639,0,0,0,.75-1.078,5.373,5.373,0,0,0,.609-1.54,6.757,6.757,0,0,0-.494-4.017s5.03-1.054,6.825,1.688c0,0,.173-1.268,1.77-.42a23.434,23.434,0,0,0,.082,4.676C205.29,396.459,207.274,397.077,205.866,403.663Z" transform="translate(-190.814 -388.192)" fill="#cfd8dc"/>
          <path id="Trazado_22364" data-name="Trazado 22364" d="M203.893,396.15a.656.656,0,0,1-.494.222.717.717,0,0,1-.436-.148,5.394,5.394,0,0,0-4.907-.889,5.373,5.373,0,0,0,.609-1.54c.988-.362,2.849-.576,5.145,1.384A.676.676,0,0,1,203.893,396.15Z" transform="translate(-192.686 -389.579)" fill="#adbec4"/>
          <path id="Trazado_22365" data-name="Trazado 22365" d="M202,399.545l-.082.124a.674.674,0,0,1-.905.223,9.081,9.081,0,0,0-5.484-1.392,11.345,11.345,0,0,0,1.128-1.144,5.878,5.878,0,0,1,5.2,1.292A.689.689,0,0,1,202,399.545Z" transform="translate(-192.032 -390.521)" fill="#adbec4"/>
        </g>
      </g>
    </g>
  </g>
</svg>
