<svg xmlns="http://www.w3.org/2000/svg" xmlns:xlink="http://www.w3.org/1999/xlink" width="400" height="400" viewBox="0 0 400 400">
  <defs>
    <linearGradient id="linear-gradient" x1="10.184" y1="0.971" x2="10.184" y2="0.006" gradientUnits="objectBoundingBox">
      <stop offset="0" stop-color="#da4531"/>
      <stop offset="1" stop-color="#feb15f"/>
    </linearGradient>
  </defs>
  <g id="Grupo_2" data-name="Grupo 2" transform="translate(-3418.181 20790)">
    <g id="Grupo_44928" data-name="Grupo 44928" transform="translate(8915.229 -15464.289)">
      <path id="BACK" d="M67.222,0H332.778A67.222,67.222,0,0,1,400,67.222V332.778A67.222,67.222,0,0,1,332.778,400H67.222A67.222,67.222,0,0,1,0,332.778V67.222A67.222,67.222,0,0,1,67.222,0Z" transform="translate(-5497.048 -5325.711)" fill="url(#linear-gradient)"/>
      <g id="Grupo_44926" data-name="Grupo 44926">
        <path id="Trazado_16748" data-name="Trazado 16748" d="M-5274.719-5110.676a21.818,21.818,0,0,0-21.818-21.818,21.818,21.818,0,0,0-21.818,21.818,21.818,21.818,0,0,0,21.818,21.818A21.818,21.818,0,0,0-5274.719-5110.676Z" fill="#da4531"/>
        <path id="Trazado_16749" data-name="Trazado 16749" d="M-5296.537-5295.711a50,50,0,0,0-50,50c0,27.614,50,90.073,50,90.073s50-62.459,50-90.073A50,50,0,0,0-5296.537-5295.711Zm0,72.5a22.5,22.5,0,0,1-22.5-22.5,22.5,22.5,0,0,1,22.5-22.5,22.5,22.5,0,0,1,22.5,22.5A22.5,22.5,0,0,1-5296.537-5223.211Z" fill="#da4531"/>
        <path id="Trazado_16750" data-name="Trazado 16750" d="M-5281.971-5076.484H-5311.1a23.266,23.266,0,0,0-23.266,23.265v44.107a17.082,17.082,0,0,0,5,12.078l5.044,5.044a12.551,12.551,0,0,1,3.675,8.872v47.407h48.219v-47.407a12.549,12.549,0,0,1,3.675-8.872l5.045-5.044a17.08,17.08,0,0,0,5-12.078v-44.107A23.266,23.266,0,0,0-5281.971-5076.484Z" fill="#da4531"/>
        <path id="Trazado_16751" data-name="Trazado 16751" d="M-5418.706-5203.054a21.817,21.817,0,0,0,21.819-21.818,21.818,21.818,0,0,0-21.819-21.818,21.818,21.818,0,0,0-21.818,21.818A21.817,21.817,0,0,0-5418.706-5203.054Z" fill="#da4531"/>
        <path id="Trazado_16752" data-name="Trazado 16752" d="M-5404.139-5190.68h-29.133a23.265,23.265,0,0,0-23.265,23.265v44.107a17.079,17.079,0,0,0,5,12.078l5.044,5.044a12.548,12.548,0,0,1,3.675,8.872v48.473a24.109,24.109,0,0,0,24.109,24.109h0a24.109,24.109,0,0,0,24.109-24.109v-48.473a12.548,12.548,0,0,1,3.675-8.872l5.044-5.044a17.081,17.081,0,0,0,5-12.078v-44.107A23.265,23.265,0,0,0-5404.139-5190.68Z" fill="#da4531"/>
        <path id="Trazado_16753" data-name="Trazado 16753" d="M-5175.39-5203.054a21.817,21.817,0,0,0,21.818-21.818,21.818,21.818,0,0,0-21.818-21.818,21.818,21.818,0,0,0-21.818,21.818A21.817,21.817,0,0,0-5175.39-5203.054Z" fill="#da4531"/>
        <path id="Trazado_16754" data-name="Trazado 16754" d="M-5160.824-5190.68h-29.132a23.265,23.265,0,0,0-23.265,23.265v44.107a17.082,17.082,0,0,0,5,12.078l5.044,5.044a12.549,12.549,0,0,1,3.676,8.872v48.473a24.109,24.109,0,0,0,24.109,24.109h0a24.109,24.109,0,0,0,24.109-24.109v-48.473a12.548,12.548,0,0,1,3.675-8.872l5.045-5.044a17.081,17.081,0,0,0,5-12.078v-44.107A23.266,23.266,0,0,0-5160.824-5190.68Z" fill="#da4531"/>
      </g>
      <g id="Grupo_44927" data-name="Grupo 44927">
        <path id="Trazado_16755" data-name="Trazado 16755" d="M-5274.719-5100.676a21.818,21.818,0,0,0-21.818-21.818,21.818,21.818,0,0,0-21.818,21.818,21.818,21.818,0,0,0,21.818,21.818A21.818,21.818,0,0,0-5274.719-5100.676Z" fill="#fff"/>
        <path id="Trazado_16756" data-name="Trazado 16756" d="M-5296.537-5285.711a50,50,0,0,0-50,50c0,27.614,50,90.073,50,90.073s50-62.459,50-90.073A50,50,0,0,0-5296.537-5285.711Zm0,72.5a22.5,22.5,0,0,1-22.5-22.5,22.5,22.5,0,0,1,22.5-22.5,22.5,22.5,0,0,1,22.5,22.5A22.5,22.5,0,0,1-5296.537-5213.211Z" fill="#fff"/>
        <path id="Trazado_16757" data-name="Trazado 16757" d="M-5281.971-5066.484H-5311.1a23.266,23.266,0,0,0-23.266,23.265v44.107a17.082,17.082,0,0,0,5,12.078l5.044,5.044a12.551,12.551,0,0,1,3.675,8.872v47.407h48.219v-47.407a12.549,12.549,0,0,1,3.675-8.872l5.045-5.044a17.08,17.08,0,0,0,5-12.078v-44.107A23.266,23.266,0,0,0-5281.971-5066.484Z" fill="#fff"/>
        <path id="Trazado_16758" data-name="Trazado 16758" d="M-5418.706-5193.054a21.817,21.817,0,0,0,21.819-21.818,21.818,21.818,0,0,0-21.819-21.818,21.818,21.818,0,0,0-21.818,21.818A21.817,21.817,0,0,0-5418.706-5193.054Z" fill="#fff"/>
        <path id="Trazado_16759" data-name="Trazado 16759" d="M-5404.139-5180.68h-29.133a23.265,23.265,0,0,0-23.265,23.265v44.107a17.079,17.079,0,0,0,5,12.078l5.044,5.044a12.548,12.548,0,0,1,3.675,8.872v48.473a24.109,24.109,0,0,0,24.109,24.109h0a24.109,24.109,0,0,0,24.109-24.109v-48.473a12.548,12.548,0,0,1,3.675-8.872l5.044-5.044a17.081,17.081,0,0,0,5-12.078v-44.107A23.265,23.265,0,0,0-5404.139-5180.68Z" fill="#fff"/>
        <path id="Trazado_16760" data-name="Trazado 16760" d="M-5175.39-5193.054a21.817,21.817,0,0,0,21.818-21.818,21.818,21.818,0,0,0-21.818-21.818,21.818,21.818,0,0,0-21.818,21.818A21.817,21.817,0,0,0-5175.39-5193.054Z" fill="#fff"/>
        <path id="Trazado_16761" data-name="Trazado 16761" d="M-5160.824-5180.68h-29.132a23.265,23.265,0,0,0-23.265,23.265v44.107a17.082,17.082,0,0,0,5,12.078l5.044,5.044a12.549,12.549,0,0,1,3.676,8.872v48.473a24.109,24.109,0,0,0,24.109,24.109h0a24.109,24.109,0,0,0,24.109-24.109v-48.473a12.548,12.548,0,0,1,3.675-8.872l5.045-5.044a17.081,17.081,0,0,0,5-12.078v-44.107A23.266,23.266,0,0,0-5160.824-5180.68Z" fill="#fff"/>
      </g>
    </g>
  </g>
</svg>
